STARTFONT 2.1
COMMENT Product Version MAUI VERSION
FONTBOUNDINGBOX 20 20 -1 -3 
STARTPROPERTIES 2
FONT_ASCENT 20
FONT_DESCENT 0
ENDPROPERTIES
CHARS 313
STARTCHAR 2
ENCODING 2
SWIDTH 520 0
DWIDTH 11 0
BBX 11 20 0 -3
BITMAP
0000
0000
0000
0C00
0C00
1E00
2D00
2D00
2D00
2C00
1E00
0D00
2D00
2D00
2D00
1E00
0C00
0000
0000
0000
ENDCHAR
STARTCHAR 108
ENCODING 108
SWIDTH 520 0
DWIDTH 2 0
BBX 2 20 0 -3
BITMAP
00
00
00
C0
C0
C0
C0
C0
C0
C0
C0
C0
C0
C0
C0
C0
C0
00
C0
C0
ENDCHAR
STARTCHAR 133
ENCODING 133
SWIDTH 520 0
DWIDTH 20 0
BBX 20 20 0 -3
BITMAP
000000
000000
000000
000000
000000
000C00
000C00
000C00
010C00
030C00
07FC00
030000
010000
000000
000000
000000
000000
000000
000000
000000
ENDCHAR
STARTCHAR 134
ENCODING 134
SWIDTH 520 0
DWIDTH 20 0
BBX 20 20 0 -3
BITMAP
000000
000000
000000
000000
000000
000000
000000
000000
030C00
030C00
03FC00
000000
000000
000000
000000
000000
000000
000000
000000
000000
ENDCHAR
STARTCHAR 331
ENCODING 331
SWIDTH 520 0
DWIDTH 9 0
BBX 9 20 0 -3
BITMAP
0000
0000
0000
0000
0000
0000
0000
0000
DF80
E180
C180
C180
C180
C180
C180
0180
0180
0180
4180
3E00
ENDCHAR
STARTCHAR 593
ENCODING 593
SWIDTH 520 0
DWIDTH 10 0
BBX 10 20 0 -3
BITMAP
0000
0000
0000
0000
0000
0000
0000
0000
3E80
4380
C180
C180
C180
C180
C180
4380
3EC0
0000
0000
0000
ENDCHAR
STARTCHAR 596
ENCODING 596
SWIDTH 520 0
DWIDTH 9 0
BBX 9 20 0 -3
BITMAP
0000
0000
0000
0000
0000
0000
0000
0000
7E00
8300
0180
0180
0180
0180
0180
8300
7E00
0000
0000
0000
ENDCHAR
STARTCHAR 601
ENCODING 601
SWIDTH 520 0
DWIDTH 9 0
BBX 9 20 0 -3
BITMAP
0000
0000
0000
0000
0000
0000
0000
0000
7F00
8180
0180
0180
FF80
C180
C180
C180
7F00
0000
0000
0000
ENDCHAR
STARTCHAR 602
ENCODING 602
SWIDTH 520 0
DWIDTH 11 0
BBX 11 20 0 -3
BITMAP
0000
0000
0000
0000
0000
0000
0000
0000
7E00
C760
03C0
0FC0
39E0
E1A0
C180
6300
3E00
0000
0000
0000
ENDCHAR
STARTCHAR 603
ENCODING 603
SWIDTH 520 0
DWIDTH 9 0
BBX 9 20 0 -3
BITMAP
0000
0000
0000
0000
0000
0000
0000
0000
7F00
C080
C000
C000
7F00
C000
C000
C080
7F00
0000
0000
0000
ENDCHAR
STARTCHAR 609
ENCODING 609
SWIDTH 520 0
DWIDTH 9 0
BBX 9 20 0 -3
BITMAP
0000
0000
0000
0000
0000
0000
0000
0000
3F80
6180
C180
C180
C180
C180
C180
6180
3F80
0180
4180
3E00
ENDCHAR
STARTCHAR 618
ENCODING 618
SWIDTH 520 0
DWIDTH 4 0
BBX 4 20 0 -3
BITMAP
00
00
00
00
00
00
00
00
F0
60
60
60
60
60
60
60
F0
00
00
00
ENDCHAR
STARTCHAR 643
ENCODING 643
SWIDTH 520 0
DWIDTH 6 0
BBX 6 20 0 -3
BITMAP
00
00
00
18
34
34
30
30
30
30
30
30
30
30
30
30
30
B0
B0
60
ENDCHAR
STARTCHAR 650
ENCODING 650
SWIDTH 520 0
DWIDTH 8 0
BBX 8 20 0 -3
BITMAP
00
00
00
00
00
00
00
00
E7
24
42
C3
C3
C3
C3
66
3C
00
00
00
ENDCHAR
STARTCHAR 652
ENCODING 652
SWIDTH 520 0
DWIDTH 9 0
BBX 9 20 0 -3
BITMAP
0000
0000
0000
0000
0000
0000
0000
0000
0800
0800
1C00
1400
3600
2200
6300
4100
E380
0000
0000
0000
ENDCHAR
STARTCHAR 658
ENCODING 658
SWIDTH 520 0
DWIDTH 7 0
BBX 7 20 0 -3
BITMAP
00
00
00
00
00
00
00
00
FE
86
0C
18
38
0C
06
06
06
06
CC
78
ENDCHAR
STARTCHAR 711
ENCODING 711
SWIDTH 520 0
DWIDTH 20 0
BBX 20 20 0 -3
BITMAP
000000
000000
000000
000000
000000
000200
000600
000C00
0C1800
063000
036000
01C000
008000
000000
000000
000000
000000
000000
000000
000000
ENDCHAR
STARTCHAR 714
ENCODING 714
SWIDTH 520 0
DWIDTH 11 0
BBX 11 20 0 -3
BITMAP
0000
0000
0000
0000
0040
00C0
0180
0300
0600
0C00
1800
3000
6000
4000
0000
0000
0000
0000
0000
0000
ENDCHAR
STARTCHAR 715
ENCODING 715
SWIDTH 520 0
DWIDTH 3 0
BBX 3 20 0 -3
BITMAP
00
00
00
80
C0
40
20
00
00
00
00
00
00
00
00
00
00
00
00
00
ENDCHAR
STARTCHAR 716
ENCODING 716
SWIDTH 520 0
DWIDTH 1 0
BBX 1 20 0 -3
BITMAP
00
00
00
00
00
00
00
00
00
00
00
00
00
00
00
00
00
80
80
80
ENDCHAR
STARTCHAR 719
ENCODING 719
SWIDTH 520 0
DWIDTH 6 0
BBX 6 20 0 -3
BITMAP
00
00
00
00
00
00
00
00
00
00
00
00
00
00
00
00
08
10
30
60
ENDCHAR
STARTCHAR 729
ENCODING 729
SWIDTH 520 0
DWIDTH 20 0
BBX 20 20 0 -3
BITMAP
000000
000000
000000
000000
000000
000000
00E000
01F000
01F000
01F000
00E000
000000
000000
000000
000000
000000
000000
000000
000000
000000
ENDCHAR
STARTCHAR 731
ENCODING 731
SWIDTH 520 0
DWIDTH 6 0
BBX 6 20 0 -3
BITMAP
00
00
00
00
00
00
00
00
00
20
40
C0
C0
C0
E4
78
00
00
00
00
ENDCHAR
STARTCHAR 768
ENCODING 768
SWIDTH 520 0
DWIDTH 20 0
BBX 20 20 0 -3
BITMAP
0F8000
078000
03C000
01C000
00E000
006000
003000
001000
000000
000000
000000
000000
000000
000000
000000
000000
000000
000000
000000
000000
ENDCHAR
STARTCHAR 769
ENCODING 769
SWIDTH 520 0
DWIDTH 3 0
BBX 3 14 0 -3
BITMAP
00
00
00
00
00
60
C0
00
00
00
00
00
00
00
ENDCHAR
STARTCHAR 771
ENCODING 771
SWIDTH 520 0
DWIDTH 6 0
BBX 6 14 0 -3
BITMAP
00
00
00
00
00
74
B8
00
00
00
00
00
00
00
ENDCHAR
STARTCHAR 780
ENCODING 780
SWIDTH 520 0
DWIDTH 10 0
BBX 10 20 0 -3
BITMAP
0000
0000
0000
C0C0
7380
3F00
1E00
0C00
0000
0000
0000
0000
0000
0000
0000
0000
0000
0000
0000
0000
ENDCHAR
STARTCHAR 7735
ENCODING 7735
SWIDTH 520 0
DWIDTH 2 0
BBX 2 20 0 -3
BITMAP
00
00
00
C0
C0
C0
C0
C0
C0
C0
C0
C0
C0
C0
C0
C0
C0
00
C0
C0
ENDCHAR
STARTCHAR 7747
ENCODING 7747
SWIDTH 520 0
DWIDTH 12 0
BBX 12 20 0 -3
BITMAP
0000
0000
0000
0000
0000
0000
0000
0000
DCE0
E730
C630
C630
C630
C630
C630
C630
C630
0000
0600
0600
ENDCHAR
STARTCHAR 7751
ENCODING 7751
SWIDTH 520 0
DWIDTH 8 0
BBX 8 20 0 -3
BITMAP
00
00
00
00
00
00
00
00
DE
E3
C3
C3
C3
C3
C3
C3
C3
00
18
18
ENDCHAR
STARTCHAR 8208
ENCODING 8208
SWIDTH 520 0
DWIDTH 12 0
BBX 4 20 0 -3
BITMAP
00
00
00
00
00
00
00
00
00
70
00
00
00
00
00
00
00
00
00
00
ENDCHAR
STARTCHAR 8210
ENCODING 8210
SWIDTH 520 0
DWIDTH 12 0
BBX 8 20 0 -3
BITMAP
00
00
00
00
00
00
00
00
00
7E
00
00
00
00
00
00
00
00
00
00
ENDCHAR
STARTCHAR 8211
ENCODING 8211
SWIDTH 520 0
DWIDTH 16 0
BBX 12 20 0 -3
BITMAP
0000
0000
0000
0000
0000
0000
0000
0000
0000
7FE0
0000
0000
0000
0000
0000
0000
0000
0000
0000
0000
ENDCHAR
STARTCHAR 8212
ENCODING 8212
SWIDTH 520 0
DWIDTH 20 0
BBX 16 20 0 -3
BITMAP
0000
0000
0000
0000
0000
0000
0000
0000
0000
7FFE
0000
0000
0000
0000
0000
0000
0000
0000
0000
0000
ENDCHAR
STARTCHAR 2015
ENCODING 8213
SWIDTH 520 0
DWIDTH 20 0
BBX 20 20 0 -3
BITMAP
000000
000000
000000
000000
000000
000000
000000
000000
000000
7FFFE0
000000
000000
000000
000000
000000
000000
000000
000000
000000
000000
ENDCHAR
STARTCHAR 8216
ENCODING 8216
SWIDTH 520 0
DWIDTH 20 0
BBX 20 20 0 -3
BITMAP
000000
000100
000200
000600
000700
000700
000200
000000
000000
000000
000000
000000
000000
000000
000000
000000
000000
000000
000000
000000
ENDCHAR
STARTCHAR 8217
ENCODING 8217
SWIDTH 520 0
DWIDTH 20 0
BBX 20 20 0 -3
BITMAP
000000
040000
0E0000
0E0000
060000
040000
080000
000000
000000
000000
000000
000000
000000
000000
000000
000000
000000
000000
000000
000000
ENDCHAR
STARTCHAR 8218
ENCODING 8218
SWIDTH 520 0
DWIDTH 20 0
BBX 20 20 0 -3
BITMAP
000000
000000
000000
000000
000000
000000
000000
000000
000000
000000
000000
000000
000000
000000
040000
0E0000
0E0000
060000
040000
080000
ENDCHAR
STARTCHAR 8219
ENCODING 8219
SWIDTH 520 0
DWIDTH 20 0
BBX 20 20 0 -3
BITMAP
000000
040000
0E0000
0E0000
0C0000
040000
020000
000000
000000
000000
000000
000000
000000
000000
000000
000000
000000
000000
000000
000000
ENDCHAR
STARTCHAR 8220
ENCODING 8220
SWIDTH 520 0
DWIDTH 20 0
BBX 20 20 0 -3
BITMAP
000000
000880
001100
003300
003B80
003B80
001100
000000
000000
000000
000000
000000
000000
000000
000000
000000
000000
000000
000000
000000
ENDCHAR
STARTCHAR 8221
ENCODING 8221
SWIDTH 520 0
DWIDTH 20 0
BBX 20 20 0 -3
BITMAP
000000
088000
1DC000
1DC000
0CC000
088000
110000
000000
000000
000000
000000
000000
000000
000000
000000
000000
000000
000000
000000
000000
ENDCHAR
STARTCHAR 8222
ENCODING 8222
SWIDTH 520 0
DWIDTH 20 0
BBX 20 20 0 -3
BITMAP
000000
000000
000000
000000
000000
000000
000000
000000
000000
000000
000000
000000
000000
000000
088000
1DC000
1DC000
0CC000
088000
110000
ENDCHAR
STARTCHAR 8223
ENCODING 8223
SWIDTH 520 0
DWIDTH 20 0
BBX 20 20 0 -3
BITMAP
000000
001100
003B80
003B80
003300
001100
000880
000000
000000
000000
000000
000000
000000
000000
000000
000000
000000
000000
000000
000000
ENDCHAR
STARTCHAR 8230
ENCODING 8230
SWIDTH 520 0
DWIDTH 20 0
BBX 20 20 0 -3
BITMAP
000000
000000
000000
000000
000000
000000
000000
000000
000000
000000
000000
000000
000000
000000
000000
606060
606060
000000
000000
000000
ENDCHAR
STARTCHAR 8231
ENCODING 8231
SWIDTH 520 0
DWIDTH 20 0
BBX 20 20 0 -3
BITMAP
000000
000000
000000
000000
000000
000000
004000
00E000
004000
000000
000000
000000
000000
000000
000000
000000
000000
000000
000000
000000
ENDCHAR
STARTCHAR 8240
ENCODING 8240
SWIDTH 520 0 
DWIDTH 19 0
BBX 19 20 0 -3
BITMAP
000800
000800
181000
242000
242000
244000
248000
248000
250000
1A0000
02C300
052480
092480
092480
112480
212480
212480
40C300
800000
000000
ENDCHAR
STARTCHAR 8242
ENCODING 8242
SWIDTH 520 0
DWIDTH 20 0
BBX 20 20 0 -3
BITMAP
000000
000000
000000
003000
007000
006000
00C000
000000
000000
000000
000000
000000
000000
000000
000000
000000
000000
000000
000000
000000
ENDCHAR
STARTCHAR 8243
ENCODING 8243
SWIDTH 520 0
DWIDTH 20 0
BBX 20 20 0 -3
BITMAP
000000
000000
000000
003300
007700
006600
00CC00
000000
000000
000000
000000
000000
000000
000000
000000
000000
000000
000000
000000
000000
ENDCHAR
STARTCHAR 8245
ENCODING 8245
SWIDTH 520 0
DWIDTH 20 0
BBX 20 20 0 -3
BITMAP
000000
000000
000000
003000
003800
001800
000C00
000000
000000
000000
000000
000000
000000
000000
000000
000000
000000
000000
000000
000000
ENDCHAR
STARTCHAR 8246
ENCODING 8246
SWIDTH 520 0
DWIDTH 20 0
BBX 20 20 0 -3
BITMAP
000000
000000
000000
00CC00
00EE00
006600
003300
000000
000000
000000
000000
000000
000000
000000
000000
000000
000000
000000
000000
000000
ENDCHAR
STARTCHAR 8248
ENCODING 8248
SWIDTH 520 0
DWIDTH 20 0
BBX 20 20 0 -3
BITMAP
000000
000000
000000
000000
000000
000000
000000
004000
00E000
00E000
01B000
01B000
031800
031800
060C00
060C00
000000
000000
000000
000000
ENDCHAR
STARTCHAR 8249
ENCODING 8249
SWIDTH 520 0
DWIDTH 20 0
BBX 20 20 0 -3
BITMAP
000000
000000
000000
000000
000000
000300
000C00
003800
00E000
038000
060000
038000
00E000
003800
000C00
000300
000000
000000
000000
000000
ENDCHAR
STARTCHAR 8250
ENCODING 8250
SWIDTH 520 0
DWIDTH 20 0
BBX 20 20 0 -3
BITMAP
000000
000000
000000
000000
0C0000
030000
01C000
007000
001C00
000600
001C00
007000
01C000
030000
0C0000
000000
000000
000000
000000
000000
ENDCHAR
STARTCHAR 8251
ENCODING 8251
SWIDTH 520 0
DWIDTH 20 0
BBX 20 20 0 -3
BITMAP
000000
000000
000000
000000
080100
046200
026400
010800
009000
066600
066600
009000
010800
026400
046200
080100
000000
000000
000000
000000
ENDCHAR
STARTCHAR 8260
ENCODING 8260
SWIDTH 520 0
DWIDTH 20 0
BBX 20 20 0 -3
BITMAP
000000
000000
000000
000000
002000
002000
002000
004000
004000
004000
008000
008000
008000
010000
010000
010000
000000
000000
000000
000000
ENDCHAR
STARTCHAR 8358
ENCODING 8358
SWIDTH 520 0
DWIDTH 20 0
BBX 20 20 0 -3
BITMAP
000000
000000
0C0600
0E0600
0F0600
0F0600
0D8600
1FFF00
0CC600
1FFF00
0C6600
0C3600
0C3600
0C1E00
0C1E00
0C0E00
0C0600
000000
000000
000000
ENDCHAR
STARTCHAR 8359
ENCODING 8359
SWIDTH 520 0 
DWIDTH 20 0
BBX 20 20 0 -3
BITMAP
000000
000000
3F0000
3F8000
318000
318000
318000
318000
3F8000
3F0000
304000
304780
31F480
304400
304780
304080
304480
306780
000000
000000
ENDCHAR
STARTCHAR 8360
ENCODING 8360
SWIDTH 520 0 
DWIDTH 20 0
BBX 20 20 0 -3
BITMAP
000000
000000
7F8000
7FC000
60C000
60C000
60C000
60C000
7FC000
7F9E00
781100
6C1100
661100
631E00
619000
60D000
607000
603000
000000
000000
ENDCHAR
STARTCHAR 8364
ENCODING 8364
SWIDTH 520 0
DWIDTH 20 0
BBX 20 20 0 -3
BITMAP
000000
000000
000000
000000
00F800
018400
030200
030000
07F000
030000
030000
07F000
030000
030200
018400
00F800
000000
000000
000000
000000
ENDCHAR
STARTCHAR 8451
ENCODING 8451
SWIDTH 520 0 
DWIDTH 19 0
BBX 19 20 0 -3
BITMAP
000000
380000
443C80
44C280
458180
3B0080
030080
060080
060000
060000
060000
060000
060000
030080
030080
018100
00C200
003C00
000000
000000
ENDCHAR
STARTCHAR 8457
ENCODING 8457
SWIDTH 520 0 
DWIDTH 20 0
BBX 20 20 0 -3
BITMAP
000000
19FFE0
3C60E0
666060
666020
3C6020
186000
006100
006100
007F00
006100
006100
006100
006000
006000
006000
006000
006000
01F800
000000
ENDCHAR
STARTCHAR 8482
ENCODING 8482
SWIDTH 520 0
DWIDTH 12 0
BBX 12 20 0 -3
BITMAP
0000
0000
0000
F630
6770
6770
66B0
66B0
66B0
6630
6630
0000
0000
0000
0000
0000
0000
0000
0000
0000
ENDCHAR
STARTCHAR 8544
ENCODING 8544
SWIDTH 520 0
DWIDTH 2 0
BBX 2 20 0 -3
BITMAP
00
00
00
C0
C0
C0
C0
C0
C0
C0
C0
C0
C0
C0
C0
C0
C0
00
00
00
ENDCHAR
STARTCHAR 8545
ENCODING 8545
SWIDTH 520 0
DWIDTH 7 0
BBX 7 20 0 -3
BITMAP
00
00
00
C6
C6
C6
C6
C6
C6
C6
C6
C6
C6
C6
C6
C6
C6
00
00
00
ENDCHAR
STARTCHAR 8546
ENCODING 8546
SWIDTH 520 0
DWIDTH 12 0
BBX 12 20 0 -3
BITMAP
0000
0000
0000
C630
C630
C630
C630
C630
C630
C630
C630
C630
C630
C630
C630
C630
C630
0000
0000
0000
ENDCHAR
STARTCHAR 8547
ENCODING 8547
SWIDTH 520 0
DWIDTH 14 0
BBX 14 20 0 -3
BITMAP
0000
0000
0000
CC0C
CC0C
CC0C
C618
C618
C618
C330
C330
C330
C1E0
C1E0
C1E0
C0C0
C0C0
0000
0000
0000
ENDCHAR
STARTCHAR 8548
ENCODING 8548
SWIDTH 520 0
DWIDTH 10 0
BBX 10 20 0 -3
BITMAP
0000
0000
C0C0
C0C0
C0C0
6180
6180
6180
3300
3300
3300
1E00
1E00
1E00
0C00
0C00
0000
0000
0000
0000
ENDCHAR
STARTCHAR 8549
ENCODING 8549
SWIDTH 520 0
DWIDTH 14 0
BBX 14 20 0 -3
BITMAP
0000
0000
0000
C0CC
C0CC
C0CC
618C
618C
618C
330C
330C
330C
1E0C
1E0C
1E0C
0C0C
0C0C
0000
0000
0000
ENDCHAR
STARTCHAR 8550
ENCODING 8550
SWIDTH 520 0
DWIDTH 17 0
BBX 17 20 0 -3
BITMAP
000000
000000
000000
C0CD80
C0CD80
C0CD80
618D80
618D80
618D80
330D80
330D80
330D80
1E0D80
1E0D80
1E0D80
0C0D80
0C0D80
000000
000000
000000
ENDCHAR
STARTCHAR 8551
ENCODING 8551
SWIDTH 520 0
DWIDTH 20 0
BBX 20 20 0 -3
BITMAP
000000
000000
000000
C0CDB0
C0CDB0
C0CDB0
618DB0
618DB0
618DB0
330DB0
330DB0
330DB0
1E0DB0
1E0DB0
1E0DB0
0C0DB0
0C0DB0
000000
000000
000000
ENDCHAR
STARTCHAR 8552
ENCODING 8552
SWIDTH 520 0
DWIDTH 15 0
BBX 15 20 0 -3
BITMAP
0000
0000
CC06
C60C
C60C
C318
C1B0
C1F0
C0E0
C0E0
C1F0
C1B0
C318
C60C
C60C
CC06
0000
0000
0000
0000
ENDCHAR
STARTCHAR 8553
ENCODING 8553
SWIDTH 520 0
DWIDTH 11 0
BBX 11 20 0 -3
BITMAP
0000
0000
C060
60C0
60C0
3180
1B00
1F00
0E00
0E00
1F00
1B00
3180
60C0
60C0
C060
0000
0000
0000
0000
ENDCHAR
STARTCHAR 8554
ENCODING 8554
SWIDTH 520 0
DWIDTH 15 0
BBX 15 20 0 -3
BITMAP
0000
0000
C066
60C6
60C6
3186
1B06
1F06
0E06
0E06
1F06
1B06
3186
60C6
60C6
C066
0000
0000
0000
0000
ENDCHAR
STARTCHAR 8555
ENCODING 8555
SWIDTH 520 0
DWIDTH 18 0
BBX 18 20 0 -3
BITMAP
000000
000000
C066C0
60C6C0
60C6C0
3186C0
1B06C0
1F06C0
0E06C0
0E06C0
1F06C0
1B06C0
3186C0
60C6C0
60C6C0
C066C0
000000
000000
000000
000000
ENDCHAR
STARTCHAR 8560
ENCODING 8560
SWIDTH 520 0
DWIDTH 2 0
BBX 2 20 0 -3
BITMAP
00
00
C0
C0
00
C0
C0
C0
C0
C0
C0
C0
C0
C0
C0
C0
00
00
00
00
ENDCHAR
STARTCHAR 8561
ENCODING 8561
SWIDTH 520 0
DWIDTH 6 0
BBX 6 20 0 -3
BITMAP
00
00
CC
CC
00
CC
CC
CC
CC
CC
CC
CC
CC
CC
CC
CC
00
00
00
00
ENDCHAR
STARTCHAR 8562
ENCODING 8562
SWIDTH 520 0
DWIDTH 10 0
BBX 10 20 0 -3
BITMAP
0000
0000
CCC0
CCC0
0000
CCC0
CCC0
CCC0
CCC0
CCC0
CCC0
CCC0
CCC0
CCC0
CCC0
CCC0
0000
0000
0000
0000
ENDCHAR
STARTCHAR 8563
ENCODING 8563
SWIDTH 520 0
DWIDTH 13 0
BBX 13 20 0 -3
BITMAP
0000
0000
C000
C000
0000
CC18
CC18
C630
C630
C630
C360
C360
C3E0
C1C0
C1C0
C1C0
0000
0000
0000
0000
ENDCHAR
STARTCHAR 8564
ENCODING 8564
SWIDTH 520 0
DWIDTH 9 0
BBX 9 20 0 -3
BITMAP
0000
0000
0000
0000
0000
C180
C180
6300
6300
6300
3600
3600
3E00
1C00
1C00
1C00
0000
0000
0000
0000
ENDCHAR
STARTCHAR 8565
ENCODING 8565
SWIDTH 520 0
DWIDTH 13 0
BBX 13 20 0 -3
BITMAP
0000
0000
0018
0018
0000
C198
C198
6318
6318
6318
3618
3618
3E18
1C18
1C18
1C18
0000
0000
0000
0000
ENDCHAR
STARTCHAR 8566
ENCODING 8566
SWIDTH 520 0
DWIDTH 16 0
BBX 16 20 0 -3
BITMAP
0000
0000
001B
001B
0000
C19B
C19B
631B
631B
631B
361B
361B
3E1B
1C1B
1C1B
1C1B
0000
0000
0000
0000
ENDCHAR
STARTCHAR 8567
ENCODING 8567
SWIDTH 520 0
DWIDTH 19 0
BBX 19 20 0 -3
BITMAP
000000
000000
001B60
001B60
000000
C19B60
C19B60
631B60
631B60
631B60
361B60
361B60
3E1B60
1C1B60
1C1B60
1C1B60
000000
000000
000000
000000
ENDCHAR
STARTCHAR 8568
ENCODING 8568
SWIDTH 520 0
DWIDTH 13 0
BBX 13 20 0 -3
BITMAP
0000
0000
C000
C000
0000
CC18
CE38
C630
C770
C3E0
C3E0
C770
C630
CE38
CC18
CC18
0000
0000
0000
0000
ENDCHAR
STARTCHAR 8569
ENCODING 8569
SWIDTH 520 0
DWIDTH 9 0
BBX 9 20 0 -3
BITMAP
0000
0000
0000
0000
0000
C180
E380
6300
7700
3E00
3E00
7700
6300
E380
C180
C180
0000
0000
0000
0000
ENDCHAR
STARTCHAR 8570
ENCODING 8570
SWIDTH 520 0
DWIDTH 13 0
BBX 13 20 0 -3
BITMAP
0000
0000
0018
0018
0000
C198
E398
6318
7718
3E18
3E18
7718
6318
E398
C198
C198
0000
0000
0000
0000
ENDCHAR
STARTCHAR 8571
ENCODING 8571
SWIDTH 520 0
DWIDTH 16 0
BBX 16 20 0 -3
BITMAP
0000
0000
001B
001B
0000
C19B
E39B
631B
771B
3E1B
3E1B
771B
631B
E39B
C19B
C19B
0000
0000
0000
0000
ENDCHAR
STARTCHAR 8730
ENCODING 8730
SWIDTH 520 0 
DWIDTH 19 0
BBX 19 20 0 -3
BITMAP
000020
000020
000040
000040
000080
000080
000100
000100
000200
000200
000400
000400
080800
0C0800
161000
231000
01A000
00E000
004000
000000
ENDCHAR
STARTCHAR 8745
ENCODING 8745
SWIDTH 520 0 
DWIDTH 19 0
BBX 19 20 0 -3
BITMAP
000000
000000
03F800
040400
080200
080200
100100
100100
100100
100100
100100
100100
100100
100100
100100
100100
100100
100100
000000
000000
ENDCHAR
STARTCHAR 8857
ENCODING 8857
SWIDTH 520 0 
DWIDTH 19 0
BBX 19 20 0 -3
BITMAP
000000
000000
03F000
0C0C00
100200
200100
200100
400080
40C080
41E080
41E080
40C080
400080
200100
200100
100200
0C0C00
03F000
000000
000000
ENDCHAR
STARTCHAR 9733
ENCODING 9733
SWIDTH 520 0
DWIDTH 20 0
BBX 20 20 0 -3
BITMAP
000000
000000
000000
004000
00E000
00E000
01F000
01F000
03F800
FFFFE0
7FFFC0
1FFF00
0FFE00
07FC00
0FFE00
0FBE00
1F1F00
1E0F00
3C0780
300180
ENDCHAR
STARTCHAR 9734
ENCODING 9734
SWIDTH 520 0
DWIDTH 20 0
BBX 20 20 0 -3
BITMAP
000000
000000
000000
004000
00E000
00A000
011000
011000
020800
FE0FE0
6000C0
100100
080200
040400
084200
08A200
111100
120900
2C0680
300180
ENDCHAR
STARTCHAR 12289
ENCODING 12289
SWIDTH 520 0
DWIDTH 20 0
BBX 20 20 0 -3
BITMAP
000000
000000
000000
000000
000000
000000
010000
008000
00C000
006000
006000
006000
000000
000000
000000
000000
000000
000000
000000
000000
ENDCHAR
STARTCHAR 12290
ENCODING 12290
SWIDTH 520 0
DWIDTH 20 0
BBX 20 20 0 -3
BITMAP
000000
000000
000000
000000
000000
000000
000000
00E000
011000
011000
011000
00E000
000000
000000
000000
000000
000000
000000
000000
000000
ENDCHAR
STARTCHAR 12298
ENCODING 12298
SWIDTH 520 0
DWIDTH 20 0
BBX 20 20 0 -3
BITMAP
000000
000000
000480
000480
000900
000900
001200
001200
002400
002400
004800
002400
002400
001200
001200
000900
000900
000480
000480
000000
ENDCHAR
STARTCHAR 12299
ENCODING 12299
SWIDTH 520 0
DWIDTH 20 0
BBX 20 20 0 -3
BITMAP
000000
000000
120000
120000
090000
090000
048000
048000
024000
024000
012000
024000
024000
048000
048000
090000
090000
120000
120000
000000
ENDCHAR
STARTCHAR 12300
ENCODING 12300
SWIDTH 520 0
DWIDTH 20 0
BBX 20 20 0 -3
BITMAP
000000
001F80
001000
001000
001000
001000
001000
001000
001000
001000
001000
001000
001000
001000
001000
001000
001000
001000
000000
000000
ENDCHAR
STARTCHAR 12301
ENCODING 12301
SWIDTH 520 0
DWIDTH 20 0
BBX 20 20 0 -3
BITMAP
000000
000000
008000
008000
008000
008000
008000
008000
008000
008000
008000
008000
008000
008000
008000
008000
008000
008000
1F8000
000000
ENDCHAR
STARTCHAR 12302
ENCODING 12302
SWIDTH 520 0
DWIDTH 20 0
BBX 20 20 0 -3
BITMAP
000000
000000
00E000
00A000
00A000
00A000
00A000
00A000
00A000
00A000
00A000
00A000
00A000
00A000
00A000
00A000
1FA000
102000
1FE000
000000
ENDCHAR
STARTCHAR 12303
ENCODING 12303
SWIDTH 520 0
DWIDTH 20 0
BBX 20 20 0 -3
BITMAP
000000
007F80
004080
005F80
005000
005000
005000
005000
005000
005000
005000
005000
005000
005000
005000
005000
005000
007000
000000
000000
ENDCHAR
STARTCHAR 42064
ENCODING 42064
SWIDTH 520 0 
DWIDTH 20 0
BBX 20 20 0 -3
BITMAP
000000
000000
000000
0E0000
1F0000
1F0000
1F0000
0E0000
000000
000000
000380
0007C0
0007C0
0007C0
000380
000700
000C00
000000
000000
000000
ENDCHAR
STARTCHAR 42065
ENCODING 42065
SWIDTH 520 0 
DWIDTH 20 0
BBX 20 20 0 -3
BITMAP
000000
000000
3000C0
3801C0
3C03C0
1E0780
0F0F00
079E00
33FCC0
39F9C0
3CF3C0
1E6780
0F0F00
079E00
03FC00
01F800
00F000
006000
000000
000000
ENDCHAR
STARTCHAR 42066
ENCODING 42066
SWIDTH 520 0 
DWIDTH 20 0
BBX 20 20 0 -3
BITMAP
000000
000000
000000
000000
000000
000000
000000
000000
1CE7F0
211490
211490
211490
9CE490
000000
000000
000000
000000
000000
000000
000000
ENDCHAR
STARTCHAR 42067
ENCODING 42067
SWIDTH 520 0 
DWIDTH 20 0
BBX 20 20 0 -3
BITMAP
000000
000000
000000
000000
000000
000000
000000
000000
000000
000000
000000
000000
000000
000000
007000
007000
00E000
00E000
01C000
000000
ENDCHAR
STARTCHAR 42068
ENCODING 42068
SWIDTH 520 0 
DWIDTH 20 0
BBX 20 20 0 -3
BITMAP
000000
000000
000000
007F00
01FF80
07FFC0
0F7EE0
1F3CF0
3F99F0
7FC3F0
FFE7F0
7FC3F0
3F99F0
1F3CE0
077EE0
03FFC0
00FF80
001C00
000000
000000
ENDCHAR
STARTCHAR 42069
ENCODING 42069
SWIDTH 520 0 
DWIDTH 20 0
BBX 20 20 0 -3
BITMAP
000000
000000
000000
000000
000000
000000
000000
006000
00F000
01F800
01F800
00F000
006000
000000
000000
000000
000000
000000
000000
000000
ENDCHAR
STARTCHAR 42070
ENCODING 42070
SWIDTH 520 0 
DWIDTH 20 0
BBX 20 20 0 -3
BITMAP
000000
000000
000000
000000
000070
000070
000070
000070
00C070
03C070
0FC070
3FFFF0
FFFFF0
FFFFF0
3FFFE0
0FC000
03C000
00C000
000000
000000
ENDCHAR
STARTCHAR 42071
ENCODING 42071
SWIDTH 520 0 
DWIDTH 20 0
BBX 20 20 0 -3
BITMAP
000000
000000
000000
0E0000
1B0000
110000
1B0000
0E0000
000000
000000
000380
0007C0
0007C0
0007C0
000380
000700
000C00
000000
000000
000000
ENDCHAR
STARTCHAR 42072
ENCODING 42072
SWIDTH 520 0 
DWIDTH 20 0
BBX 20 20 0 -3
BITMAP
000000
000000
000000
000000
000000
000000
000000
000000
007000
00D800
008800
00D800
007000
000000
000000
000000
000000
000000
000000
000000
ENDCHAR
STARTCHAR 42073
ENCODING 42073
SWIDTH 520 0 
DWIDTH 20 0
BBX 20 20 0 -3
BITMAP
000000
0FC000
1FC000
380F80
301FC0
33D8C0
33D8C0
38D8C0
1FDFC0
0FCF80
000000
003000
003E00
003F80
7FFFE0
7FFFE0
003F80
003E00
003000
000000
ENDCHAR
STARTCHAR 42074
ENCODING 42074
SWIDTH 520 0 
DWIDTH 20 0
BBX 20 20 0 -3
BITMAP
000000
000000
03FC00
0FFF00
1E6780
1FFF80
37FEC0
3666C0
3666C0
3FFFC0
3FFFC0
3666C0
3666C0
37FEC0
1FFF80
1E6780
0FFF00
03FC00
000000
000000
ENDCHAR
STARTCHAR 42075
ENCODING 42075
SWIDTH 520 0 
DWIDTH 20 0
BBX 20 20 0 -3
BITMAP
000000
000000
001E00
003E00
007C00
00F800
01F000
03E000
07C000
0F8000
0F8000
07C000
03E000
01F000
00F800
007C00
003E00
001E00
000000
000000
ENDCHAR
STARTCHAR 42076
ENCODING 42076
SWIDTH 520 0 
DWIDTH 20 0
BBX 20 20 0 -3
BITMAP
000000
000000
000000
000000
000000
000000
000000
000000
1FFF80
3FFFC0
3FFFC0
1FFF80
000000
000000
000000
000000
000000
000000
000000
000000
ENDCHAR
STARTCHAR 42077
ENCODING 42077
SWIDTH 520 0 
DWIDTH 20 0
BBX 20 20 0 -3
BITMAP
000000
000000
3C01C0
3E01C0
3F01C0
3F01C0
3F81C0
3BC1C0
39E1C0
38F1C0
38F1C0
3879C0
383DC0
381FC0
380FC0
380FC0
3807C0
3803C0
000000
000000
ENDCHAR
STARTCHAR 42078
ENCODING 42078
SWIDTH 520 0 
DWIDTH 20 0
BBX 20 20 0 -3
BITMAP
000000
038000
00E000
007000
003800
3FFFC0
3FFFC0
001C00
001C00
001C00
001C00
001C00
01FFC0
00FF80
007F00
003E00
001C00
000800
000000
000000
ENDCHAR
STARTCHAR 42079
ENCODING 42079
SWIDTH 520 0 
DWIDTH 20 0
BBX 20 20 0 -3
BITMAP
000000
000000
0FFC00
0FFE00
0FFF00
0E0F00
0E0700
0E0700
0E0F00
0FFF00
0FFE00
0FFC00
0E0000
0E0000
0E0000
0E0000
0E0000
0E0000
000000
000000
ENDCHAR
STARTCHAR 42080
ENCODING 42080
SWIDTH 520 0 
DWIDTH 20 0
BBX 20 20 0 -3
BITMAP
000000
000000
000000
000000
000000
301BE0
F03670
F03030
306060
3061E0
30C070
30C030
308670
3183E0
000000
000000
000000
000000
000000
000000
ENDCHAR
STARTCHAR 42081
ENCODING 42081
SWIDTH 520 0 
DWIDTH 20 0
BBX 20 20 0 -3
BITMAP
000000
000000
000000
000000
000000
781BE0
CC3270
0C3030
0C2060
1861E0
306070
60C030
C0C670
FD87E0
000000
000000
000000
000000
000000
000000
ENDCHAR
STARTCHAR 42082
ENCODING 42082
SWIDTH 520 0 
DWIDTH 20 0
BBX 20 20 0 -3
BITMAP
000000
000000
01F800
03FC00
0FFF00
1FFF80
19F980
39F9C0
3FFFC0
3FFFC0
3FFFC0
3FFFC0
3DFBC0
1CF380
1E0780
0FFF00
03FC00
01F800
000000
000000
ENDCHAR
STARTCHAR 42083
ENCODING 42083
SWIDTH 520 0 
DWIDTH 20 0
BBX 20 20 0 -3
BITMAP
000000
000000
006000
00F000
00F000
00F000
00F000
00F000
1FFF80
3FFFC0
3FFFC0
1FFF80
00F000
00F000
00F000
00F000
00F000
006000
000000
000000
ENDCHAR
STARTCHAR 42084
ENCODING 42084
SWIDTH 520 0 
DWIDTH 20 0
BBX 20 20 0 -3
BITMAP
03F800
0FFC00
0FFE00
0E1E00
000F00
000F00
000F00
001E00
003E00
007C00
00F800
01F000
01E000
01E000
00C000
000000
00C000
01E000
01E000
00C000
ENDCHAR
STARTCHAR 42085
ENCODING 42085
SWIDTH 520 0 
DWIDTH 20 0
BBX 20 20 0 -3
BITMAP
000000
000000
078000
07C000
03E000
01F000
00F800
007C00
003E00
001F00
001F00
003E00
007C00
00F800
01F000
03E000
07C000
078000
000000
000000
ENDCHAR
STARTCHAR 42086
ENCODING 42086
SWIDTH 520 0 
DWIDTH 20 0
BBX 20 20 0 -3
BITMAP
000000
000000
000000
003000
007800
007800
003000
000000
000000
000000
000000
007800
007800
00F000
00F000
01E000
01C000
038000
000000
000000
ENDCHAR
STARTCHAR 42087
ENCODING 42087
SWIDTH 520 0 
DWIDTH 20 0
BBX 20 20 0 -3
BITMAP
000000
002000
007000
00F800
01FC00
03FE00
07FF00
0FFF80
1FFFC0
00F800
00F800
00F800
00F800
00F800
00F800
00F800
000000
00F800
00F800
007000
ENDCHAR
STARTCHAR 42088
ENCODING 42088
SWIDTH 520 0 
DWIDTH 20 0
BBX 20 20 0 -3
BITMAP
000000
002000
007000
00F800
01FC00
03FE00
07FF00
0FFF80
1FFFC0
00F800
00F800
00F800
00F800
00F800
00F800
00F800
00F800
00F800
00F800
007000
ENDCHAR
STARTCHAR 42089
ENCODING 42089
SWIDTH 520 0 
DWIDTH 20 0
BBX 20 20 0 -3
BITMAP
000000
07FF80
0C0080
1FFC80
1FFC80
1C0C80
19FC80
19FC80
187C80
1C1C80
1FCC80
1FCC80
198C80
1C1C80
1FFF00
1FFE00
000000
000000
000000
000000
ENDCHAR
STARTCHAR 42091
ENCODING 42091
SWIDTH 520 0 
DWIDTH 20 0
BBX 20 20 0 -3
BITMAP
000000
000000
000000
000000
000000
000000
000000
C00030
C00030
C00030
FFFFF0
FFFFF0
000000
000000
000000
000000
000000
000000
000000
000000
ENDCHAR
STARTCHAR 42092
ENCODING 42092
SWIDTH 520 0 
DWIDTH 20 0
BBX 20 20 0 -3
BITMAP
000000
000000
000000
000000
000000
000000
000000
3000C0
3000C0
3000C0
3FFFC0
3FFFC0
000000
000000
000000
000000
000000
000000
000000
000000
ENDCHAR
STARTCHAR 42093
ENCODING 42093
SWIDTH 520 0 
DWIDTH 20 0
BBX 20 20 0 -3
BITMAP
000000
000000
0000C0
0000C0
000180
000180
000300
000300
000300
000300
000300
000300
000300
000300
1C6180
1CF180
18F0C0
3860C0
300000
000000
ENDCHAR
STARTCHAR 42094
ENCODING 42094
SWIDTH 520 0 
DWIDTH 20 0
BBX 20 20 0 -3
BITMAP
000000
000000
000000
000000
000000
1E0000
7F9770
7F9110
EDD110
FFD110
FFD770
DED410
619410
7F9410
1E1770
000000
000000
000000
000000
000000
ENDCHAR
STARTCHAR 42095
ENCODING 42095
SWIDTH 520 0 
DWIDTH 20 0
BBX 20 20 0 -3
BITMAP
00F000
03FC00
07FE00
07FE00
0EF700
0FFF00
0FFF00
0EF700
070E00
07FE00
03FC00
00F000
000000
39E780
7B34C0
1830C0
1863C0
18C0C0
1994C0
1BF780
ENDCHAR
STARTCHAR 42096
ENCODING 42096
SWIDTH 520 0 
DWIDTH 20 0
BBX 20 20 0 -3
BITMAP
000000
000000
000000
0003F0
7FF0F0
7FE1F0
7003F0
7007D0
700390
000100
080000
9C00E0
BE00E0
FC00E0
F87FE0
F0FFE0
FC0000
000000
000000
000000
ENDCHAR
STARTCHAR 42097
ENCODING 42097
SWIDTH 520 0 
DWIDTH 20 0
BBX 20 20 0 -3
BITMAP
000000
000000
000000
000040
7FF4E0
7FE5F0
7007E0
7007C0
700780
0007E0
7E0000
1E00E0
3E00E0
7E00E0
FA7FE0
72FFE0
200000
000000
000000
000000
ENDCHAR
STARTCHAR 42098
ENCODING 42098
SWIDTH 520 0 
DWIDTH 20 0
BBX 20 20 0 -3
BITMAP
000000
000000
000000
E0F070
E0F070
60F060
70F8E0
71F8E0
3198E0
3998C0
3B9DC0
3B8DC0
1F0F80
1F0F80
1F0780
0E0700
0E0700
000000
000000
000000
ENDCHAR
STARTCHAR 42099
ENCODING 42099
SWIDTH 520 0 
DWIDTH 20 0
BBX 20 20 0 -3
BITMAP
000000
000000
01F800
07FE00
0F0F00
1C7380
18F980
38D9C0
3018C0
3038C0
3070C0
3060C0
3801C0
186180
1C6380
0F0F00
07FE00
01F800
000000
000000
ENDCHAR
STARTCHAR 42100
ENCODING 42100
SWIDTH 520 0 
DWIDTH 20 0
BBX 20 20 0 -3
BITMAP
000000
000000
000070
0001E0
000380
000700
000E00
601C00
F83C00
FE7800
7FF800
1FF000
0FF000
07E000
03E000
00C000
004000
000000
000000
000000
ENDCHAR
STARTCHAR 42101
ENCODING 42101
SWIDTH 520 0 
DWIDTH 20 0
BBX 20 20 0 -3
BITMAP
000000
000000
03C000
0FF000
1C3800
181800
300C00
300C00
300C00
300C00
181800
1C3800
0FFE00
03CF00
000F80
0007C0
0003C0
000180
000000
000000
ENDCHAR
STARTCHAR 42105
ENCODING 42105
SWIDTH 520 0 
DWIDTH 20 0
BBX 20 20 0 -3
BITMAP
000000
000000
000000
000000
000000
000000
000000
007000
00F800
00F800
00F800
007000
00E000
018000
000000
000000
000000
000000
000000
000000
ENDCHAR
STARTCHAR 42106
ENCODING 42106
SWIDTH 520 0 
DWIDTH 20 0
BBX 20 20 0 -3
BITMAP
000000
000000
000000
000000
000000
000000
0CF3E0
3C9830
0C1870
0C18E0
0C3070
6C6030
6CCA30
CDFBE0
000000
000000
000000
000000
000000
000000
ENDCHAR
STARTCHAR 42107
ENCODING 42107
SWIDTH 520 0 
DWIDTH 20 0
BBX 20 20 0 -3
BITMAP
000000
000000
000000
000000
000000
3019E0
F03370
F03230
306030
306060
30C0C0
30C180
30C3F0
3187F0
000000
000000
000000
000000
000000
000000
ENDCHAR
STARTCHAR 42108
ENCODING 42108
SWIDTH 520 0 
DWIDTH 20 0
BBX 20 20 0 -3
BITMAP
000000
000000
000000
000000
000000
7819E0
CC3330
0C3030
0C7030
1C6070
38E0E0
70C1C0
E0C380
FD83F0
000000
000000
000000
000000
000000
000000
ENDCHAR
STARTCHAR 42109
ENCODING 42109
SWIDTH 520 0 
DWIDTH 20 0
BBX 20 20 0 -3
BITMAP
000000
000000
000000
000000
000000
000C00
000C00
1E7D10
12CD10
1E8D10
D0CDB0
DE7DF0
000000
000000
000000
000000
000000
000000
000000
000000
ENDCHAR
STARTCHAR 42110
ENCODING 42110
SWIDTH 520 0 
DWIDTH 20 0
BBX 20 20 0 -3
BITMAP
000000
000000
000000
000000
000000
000000
000060
1F9CF0
19B260
19BE60
19BE60
D9B060
D99E70
000000
000000
000000
000000
000000
000000
000000
ENDCHAR
STARTCHAR 42111
ENCODING 42111
SWIDTH 520 0 
DWIDTH 20 0
BBX 20 20 0 -3
BITMAP
000000
000000
000000
000000
000000
000000
0E2DE0
1B3B30
31B210
31B210
DB3330
CE31F0
000030
000320
0001C0
000000
000000
000000
000000
000000
ENDCHAR
STARTCHAR ebe3
ENCODING 60387
SWIDTH 520 0 
DWIDTH 12 0
BBX 12 20 0 -3
BITMAP
0000
3FC0
4020
4020
4000
4000
4CC0
5020
5020
57A0
5860
4840
4780
4020
4020
4020
4020
4020
3FC0
0000
ENDCHAR
STARTCHAR ebe4
ENCODING 60388
SWIDTH 520 0 
DWIDTH 9 0
BBX 9 20 0 -3
BITMAP
0000
1C00
2200
2000
2000
1C00
0000
1C00
2000
1800
0600
3100
4900
4900
3E00
0800
0800
0800
0800
0800
ENDCHAR
STARTCHAR ebe5
ENCODING 60389
SWIDTH 520 0 
DWIDTH 17 0
BBX 17 20 0 -3
BITMAP
000000
000000
000000
000000
000000
000000
000000
123C00
214200
408100
4C8100
528100
210200
1E1C00
000000
000000
000000
000000
000000
000000
ENDCHAR
STARTCHAR 61440
ENCODING 61440
SWIDTH 520 0
DWIDTH 20 0
BBX 20 20 0 -3
BITMAP
000000
01F800
030C00
060600
060600
060600
000600
000600
000E00
001C00
003800
007000
006000
006000
006000
000000
006000
006000
006000
000000
ENDCHAR
STARTCHAR 61441
ENCODING 61441
SWIDTH 520 0
DWIDTH 20 0
BBX 20 20 0 -3
BITMAP
002000
002000
002000
002000
002000
002000
002000
002000
002000
002000
002000
002000
002000
002000
002000
002000
002000
002000
002000
002000
ENDCHAR
STARTCHAR 61442
ENCODING 61442
SWIDTH 520 0
DWIDTH 20 0
BBX 20 20 0 -3
BITMAP
000000
000000
000000
000000
000000
020000
018000
00C000
00E000
007000
007000
007000
008000
000000
000000
000000
000000
000000
000000
000000
ENDCHAR
STARTCHAR 61444
ENCODING 61444
SWIDTH 520 0
DWIDTH 20 0
BBX 20 20 0 -3
BITMAP
000000
000000
000000
000000
000000
000000
000000
000000
000000
FFFFE0
000000
000000
000000
000000
000000
000000
000000
000000
000000
000000
ENDCHAR
STARTCHAR 61445
ENCODING 61445
SWIDTH 520 0
DWIDTH 20 0
BBX 20 20 0 -3
BITMAP
000000
000000
FFFF80
000180
000300
000400
000000
000000
000000
000000
000000
000000
000000
000000
000000
000000
000000
000000
000000
000000
ENDCHAR
STARTCHAR 61447
ENCODING 61447
SWIDTH 520 0
DWIDTH 20 0
BBX 20 20 0 -3
BITMAP
004000
004000
004000
004000
004000
004000
004000
004000
004000
004000
004000
004000
008000
008000
008000
010000
010000
020000
040000
080000
ENDCHAR
STARTCHAR 62464
ENCODING 62464
SWIDTH 520 0
DWIDTH 10 0
BBX 10 20 0 -3
BITMAP
0000
0000
0000
0000
0000
0000
0180
0200
7E00
8340
0380
0300
7E00
0300
0300
8300
7E00
0000
0000
0000
ENDCHAR
STARTCHAR 62465
ENCODING 62465
SWIDTH 520 0
DWIDTH 10 0
BBX 10 20 0 -3
BITMAP
0000
0000
0000
0000
0000
1D00
2E00
0000
3E80
4380
C180
C180
C180
C180
C180
4380
3EC0
0000
0000
0000
ENDCHAR
STARTCHAR 62466
ENCODING 62466
SWIDTH 520 0
DWIDTH 9 0
BBX 9 20 0 -3
BITMAP
0000
0000
0000
0000
0000
1D00
2E00
0000
7E00
C300
0180
0180
0180
0180
0180
C300
7E00
0000
0000
0000
ENDCHAR
STARTCHAR 62467
ENCODING 62467
SWIDTH 520 0
DWIDTH 8 0
BBX 8 20 0 -3
BITMAP
00
00
00
3C
66
C3
C3
C3
C3
FF
C3
C3
C3
C3
C3
66
3C
00
00
00
ENDCHAR
STARTCHAR 62469
ENCODING 62469
SWIDTH 520 0
DWIDTH 20 0
BBX 20 20 0 -3
BITMAP
000000
000000
018000
038000
070000
0E0000
1FFF80
1FFF80
000380
000780
000700
000F00
000E00
001E00
003C00
01F800
00F000
006000
000000
000000
ENDCHAR
STARTCHAR 62470
ENCODING 62470
SWIDTH 520 0
DWIDTH 20 0
BBX 20 20 0 -3
BITMAP
000000
000000
00C000
01C000
038000
070000
0FFF00
0FFF00
000F00
061E00
039C00
01F800
00F000
00F800
01FC00
039E00
070F00
0C0600
000000
000000
ENDCHAR
STARTCHAR 62471
ENCODING 62471
SWIDTH 520 0
DWIDTH 20 0
BBX 20 20 0 -3
BITMAP
000000
000000
000000
000000
1FFF80
1FFF80
0E0380
0E0380
0E0380
0E0380
0E0380
0E0380
0E0380
0E0380
0E0380
0E0380
0E0380
000000
000000
000000
ENDCHAR
STARTCHAR 62472
ENCODING 62472
SWIDTH 520 0
DWIDTH 20 0
BBX 20 20 0 -3
BITMAP
000000
000000
000000
000000
1FFF80
1FFF80
0E0000
0E0000
0E0000
0E0000
0E0000
0E0000
0E0000
0E0000
0F0000
07FF80
03FF80
000000
000000
000000
ENDCHAR
STARTCHAR 62473
ENCODING 62473
SWIDTH 520 0
DWIDTH 20 0
BBX 20 20 0 -3
BITMAP
000000
000000
030000
078000
070000
0E0000
1FFF80
1FFF80
00E380
01E380
01C380
038380
038380
070780
0E0780
1C3F00
301E00
000C00
000000
000000
ENDCHAR
STARTCHAR 62474
ENCODING 62474
SWIDTH 520 0
DWIDTH 20 0
BBX 20 20 0 -3
BITMAP
000000
000000
000000
007000
00F000
00F000
01E000
3FFF80
3FFF80
03C000
038000
070000
071800
0E0E00
0C0700
1FFF80
1FF3C0
0781C0
000080
000000
ENDCHAR
STARTCHAR 62475
ENCODING 62475
SWIDTH 520 0
DWIDTH 20 0
BBX 20 20 0 -3
BITMAP
000000
000000
07FC00
07FC00
003C00
007800
00E000
01C000
03FF00
03FF00
000700
000700
000F00
000E00
001E00
00FC00
007800
003000
000000
000000
ENDCHAR
STARTCHAR 62476
ENCODING 62476
SWIDTH 520 0
DWIDTH 20 0
BBX 20 20 0 -3
BITMAP
000000
000000
007000
0C7000
0C7000
0C7000
1FFFC0
1FFFC0
0071C0
00F1C0
00E1C0
01C1C0
01C1C0
0383C0
0703C0
0E1F80
180F00
000600
000000
000000
ENDCHAR
STARTCHAR 62477
ENCODING 62477
SWIDTH 520 0
DWIDTH 20 0
BBX 20 20 0 -3
BITMAP
000000
000000
018600
038E00
038E00
071C00
071C00
0E3800
1C7000
38E000
1C7000
0E3800
071C00
030C00
038E00
01C700
01C700
00C300
000000
000000
ENDCHAR
STARTCHAR 62478
ENCODING 62478
SWIDTH 520 0
DWIDTH 20 0
BBX 20 20 0 -3
BITMAP
000000
000000
1FFF00
1FFF00
00E000
00E000
01C000
038000
07FE00
07FE00
000E00
000E00
001E00
001C00
003C00
01F800
00F000
006000
000000
000000
ENDCHAR
STARTCHAR 62479
ENCODING 62479
SWIDTH 520 0
DWIDTH 20 0
BBX 20 20 0 -3
BITMAP
000000
000000
000000
07FF80
07FF80
038000
038000
038000
038000
038000
078000
078000
070000
0F0000
0E0000
1C0000
180000
300000
000000
000000
ENDCHAR
STARTCHAR 62480
ENCODING 62480
SWIDTH 520 0
DWIDTH 20 0
BBX 20 20 0 -3
BITMAP
000000
000000
000E00
070E00
070E00
070E00
070E00
070E00
070E00
071E00
077E00
07EE00
0FCE00
0F0E00
060E00
000E00
000E00
000E00
000000
000000
ENDCHAR
STARTCHAR 62481
ENCODING 62481
SWIDTH 520 0
DWIDTH 20 0
BBX 20 20 0 -3
BITMAP
000000
003000
007000
007000
00F000
01E000
01C000
038000
070000
0E0000
1C0000
070000
038000
01C000
00E000
007000
007800
003800
001000
000000
ENDCHAR
STARTCHAR 62482
ENCODING 62482
SWIDTH 520 0
DWIDTH 20 0
BBX 20 20 0 -3
BITMAP
000000
000000
000000
3FFFC0
3FFFC0
007000
007000
007000
007000
007000
007000
007000
007000
007000
007000
007000
007000
007000
000000
000000
ENDCHAR
STARTCHAR 62483
ENCODING 62483
SWIDTH 520 0
DWIDTH 20 0
BBX 20 20 0 -3
BITMAP
000000
000000
007000
007000
007380
0E7380
0E7380
067380
067380
067380
067380
0FFF80
0FFF80
007180
007000
007000
1FFFC0
1FFFC0
000000
000000
ENDCHAR
STARTCHAR 62484
ENCODING 62484
SWIDTH 520 0
DWIDTH 20 0
BBX 20 20 0 -3
BITMAP
000000
000000
007000
00F000
00E000
01CC00
039E00
031E00
063C00
0C7800
00F000
01F000
03F000
077000
0C7000
007000
007000
007000
000000
000000
ENDCHAR
STARTCHAR 62485
ENCODING 62485
SWIDTH 520 0
DWIDTH 20 0
BBX 20 20 0 -3
BITMAP
000000
000000
000000
07FF80
07FF80
000380
000380
000380
03FF80
03FF80
038000
070000
070000
060000
0E0000
0C0000
180000
300000
000000
000000
ENDCHAR
STARTCHAR 62486
ENCODING 62486
SWIDTH 520 0
DWIDTH 20 0
BBX 20 20 0 -3
BITMAP
000000
000000
000000
3FFF80
1FFF80
180380
1A0380
1B8380
19C380
18E380
187380
187B80
183B80
181B80
180380
1FFF80
1FFF80
100380
000000
000000
ENDCHAR
STARTCHAR 62487
ENCODING 62487
SWIDTH 520 0
DWIDTH 20 0
BBX 20 20 0 -3
BITMAP
000000
000000
1FFF80
1FFF80
038380
038380
038380
038380
038380
038380
03E780
03FF00
03BE00
039C00
038800
038000
038000
038000
000000
000000
ENDCHAR
STARTCHAR 62488
ENCODING 62488
SWIDTH 520 0
DWIDTH 20 0
BBX 20 20 0 -3
BITMAP
000000
000000
00E000
00E000
00E000
3FFFC0
3FFFC0
01C000
038000
030000
07FF80
07FF80
000780
000700
000F00
000E00
001C00
003800
006000
000000
ENDCHAR
STARTCHAR 62489
ENCODING 62489
SWIDTH 520 0
DWIDTH 20 0
BBX 20 20 0 -3
BITMAP
000000
000000
006000
00E000
00E000
01E000
01C000
01C000
038000
038000
031000
071800
060C00
0C0E00
1C0700
3FFF80
3FE3C0
3F01C0
000080
000000
ENDCHAR
STARTCHAR 62490
ENCODING 62490
SWIDTH 520 0
DWIDTH 20 0
BBX 20 20 0 -3
BITMAP
000000
000000
000000
3800E0
1C01C0
0E0380
070700
038E00
01DC00
00F800
007000
007000
007000
007000
007000
007000
007000
007000
000000
000000
ENDCHAR
STARTCHAR 62491
ENCODING 62491
SWIDTH 520 0
DWIDTH 20 0
BBX 20 20 0 -3
BITMAP
000000
000000
000000
000000
1FFF80
1FFF80
007000
007000
01F000
07F000
0F8000
1E0000
1C0200
1C0600
1E0E00
0F1C00
07FC00
03F800
000000
000000
ENDCHAR
STARTCHAR 62492
ENCODING 62492
SWIDTH 520 0
DWIDTH 20 0
BBX 20 20 0 -3
BITMAP
000000
000000
007000
007000
1FFF80
1FFF80
007000
007000
01F000
07F000
0F8000
1E0000
1C0200
1C0600
1E0E00
0F1C00
07FC00
03F800
000000
000000
ENDCHAR
STARTCHAR 62493
ENCODING 62493
SWIDTH 520 0
DWIDTH 20 0
BBX 20 20 0 -3
BITMAP
000000
000000
000000
0E3800
0E3800
0E3800
0E3800
0E3800
3FFF80
3FFF80
0E3800
0E3800
0E3800
0E3800
0E3000
0E0000
07FF00
07FF00
000000
000000
ENDCHAR
STARTCHAR 62494
ENCODING 62494
SWIDTH 520 0
DWIDTH 20 0
BBX 20 20 0 -3
BITMAP
000000
000000
000000
1FFF80
0FFF80
073800
073800
0E7000
0E7000
1FFF80
1FFF80
00E380
01E380
01C380
038700
070700
0E0E00
181C00
000000
000000
ENDCHAR
STARTCHAR 62495
ENCODING 62495
SWIDTH 520 0
DWIDTH 20 0
BBX 20 20 0 -3
BITMAP
000000
000000
000000
01C000
03C000
0FC000
1EE000
1CE000
087000
007800
003800
001C00
001C00
000E00
000700
000300
000180
000080
000000
000000
ENDCHAR
STARTCHAR 62496
ENCODING 62496
SWIDTH 520 0
DWIDTH 20 0
BBX 20 20 0 -3
BITMAP
000000
000000
018000
038000
038600
070E00
070E00
1E1C00
0F1800
07B800
01F000
00E000
01C800
01C600
038300
1FFF80
1FF1C0
0F00C0
000000
000000
ENDCHAR
STARTCHAR 62497
ENCODING 62497
SWIDTH 520 0
DWIDTH 20 0
BBX 20 20 0 -3
BITMAP
000000
000000
000000
000000
07FE00
07FE00
000E00
001C00
061C00
03B800
01F800
00F000
007800
00FC00
01DE00
038F00
060700
0C0300
000000
000000
ENDCHAR
STARTCHAR 62498
ENCODING 62498
SWIDTH 520 0
DWIDTH 20 0
BBX 20 20 0 -3
BITMAP
000000
000000
1FFF00
1FFF00
038700
070600
070E00
0E0C00
0C1800
1FFF80
1FFF80
000380
000780
000700
000E00
001C00
003800
006000
000000
000000
ENDCHAR
STARTCHAR 62499
ENCODING 62499
SWIDTH 520 0
DWIDTH 20 0
BBX 20 20 0 -3
BITMAP
000000
000000
018000
038000
038000
070000
070000
0E0000
0C0000
1FFF80
1FFF80
000380
000780
000F00
000E00
001C00
003800
007000
000000
000000
ENDCHAR
STARTCHAR 62500
ENCODING 62500
SWIDTH 520 0
DWIDTH 20 0
BBX 20 20 0 -3
BITMAP
000000
000000
007000
007000
007000
007000
1FFFC0
1FFFC0
00F000
00F000
01F000
01F000
03B000
033000
073000
063800
0C3FC0
181FC0
000000
000000
ENDCHAR
STARTCHAR 62501
ENCODING 62501
SWIDTH 520 0
DWIDTH 20 0
BBX 20 20 0 -3
BITMAP
000000
000000
000000
003000
007000
007000
00F000
00F000
00E000
01E000
01C000
038000
030000
070000
0E0000
1FFF80
1FFF80
000000
000000
000000
ENDCHAR
STARTCHAR 62502
ENCODING 62502
SWIDTH 520 0
DWIDTH 20 0
BBX 20 20 0 -3
BITMAP
000000
000000
000000
039C00
039C00
039C00
039C00
039C00
039C00
039C00
039C00
039C00
039C00
071C00
071E00
0E1FC0
1C0FC0
3007C0
000000
000000
ENDCHAR
STARTCHAR 62503
ENCODING 62503
SWIDTH 520 0
DWIDTH 20 0
BBX 20 20 0 -3
BITMAP
000000
000000
000000
000000
000000
000000
000000
000000
000000
1FFF80
1FFF80
1FFF80
000000
000000
000000
000000
000000
000000
000000
000000
ENDCHAR
STARTCHAR 62504
ENCODING 62504
SWIDTH 520 0
DWIDTH 20 0
BBX 20 20 0 -3
BITMAP
000000
000000
000000
000600
080700
0C0F00
060F00
071E00
039E00
01FC00
00F800
007800
00FC00
01FE00
039F00
070F80
0E0780
180300
000000
000000
ENDCHAR
STARTCHAR 62505
ENCODING 62505
SWIDTH 520 0
DWIDTH 20 0
BBX 20 20 0 -3
BITMAP
000000
000000
000000
000000
000380
0E0380
0E0380
0E0380
0E0380
0E0380
0E0380
0E0380
0E0380
0E0F80
0E3F80
1FFF80
1FE380
0E0000
000000
000000
ENDCHAR
STARTCHAR 62720
ENCODING 62720
SWIDTH 520 0
DWIDTH 20 0
BBX 20 20 0 -3
BITMAP
000000
000000
000000
07FE00
000E00
003800
00E000
038000
03FF00
000300
000300
000600
000C00
001800
003000
03E000
000000
000000
000000
000000
ENDCHAR
STARTCHAR 62721
ENCODING 62721
SWIDTH 520 0
DWIDTH 20 0
BBX 20 20 0 -3
BITMAP
000000
000000
000000
0FFC00
000C00
001000
002000
004000
008000
010000
020000
040000
080100
080100
080100
07FF00
000000
000000
000000
000000
ENDCHAR
STARTCHAR 62722
ENCODING 62722
SWIDTH 520 0
DWIDTH 20 0
BBX 20 20 0 -3
BITMAP
000000
000000
000000
040000
0C0000
0FFF00
000100
000100
000100
000100
000100
000100
001100
000D00
000700
000300
000000
000000
000000
000000
ENDCHAR
STARTCHAR 62723
ENCODING 62723
SWIDTH 520 0
DWIDTH 20 0
BBX 20 20 0 -3
BITMAP
000000
000000
000000
000000
1C0000
060000
060000
030000
038000
018000
01C000
00E000
007000
007800
003C00
001F00
000000
000000
000000
000000
ENDCHAR
STARTCHAR 62724
ENCODING 62724
SWIDTH 520 0
DWIDTH 20 0
BBX 20 20 0 -3
BITMAP
000000
000000
000000
060000
060000
060000
060000
060000
060000
060000
060000
060000
060000
060200
060200
07FE00
000000
000000
000000
000000
ENDCHAR
STARTCHAR 62725
ENCODING 62725
SWIDTH 520 0
DWIDTH 20 0
BBX 20 20 0 -3
BITMAP
000000
000000
000000
000000
000000
003000
006000
00C000
018000
030000
030000
018000
00C000
006000
003000
000000
000000
000000
000000
000000
ENDCHAR
STARTCHAR 65073
ENCODING 65073
SWIDTH 520 0 
DWIDTH 20 0
BBX 20 20 0 -3
BITMAP
003000
003000
003000
003000
003000
003000
003000
003000
003000
003000
003000
003000
003000
003000
003000
003000
003000
003000
003000
003000
ENDCHAR
STARTCHAR 65087
ENCODING 65087
SWIDTH 520 0
DWIDTH 20 0
BBX 20 20 0 -3
BITMAP
000000
000000
00E000
01B000
031800
060C00
0C0600
180300
300180
000000
000000
000000
000000
000000
000000
000000
000000
000000
000000
000000
ENDCHAR
STARTCHAR 65104
ENCODING 65104
SWIDTH 520 0
DWIDTH 20 0
BBX 20 20 0 -3
BITMAP
000000
000000
000000
000000
000000
000000
000000
000000
000000
000000
000000
000000
000000
000000
002000
007000
007000
003000
002000
004000
ENDCHAR
STARTCHAR 65106
ENCODING 65106
SWIDTH 520 0
DWIDTH 20 0
BBX 20 20 0 -3
BITMAP
000000
000000
000000
000000
000000
000000
000000
000000
000000
000000
000000
000000
000000
000000
000000
006000
00F000
00F000
006000
000000
ENDCHAR
STARTCHAR 65108
ENCODING 65108
SWIDTH 520 0
DWIDTH 20 0
BBX 20 20 0 -3
BITMAP
000000
000000
000000
000000
002000
007000
007000
002000
000000
000000
002000
007000
007000
003000
002000
004000
000000
000000
000000
000000
ENDCHAR
STARTCHAR 65109
ENCODING 65109
SWIDTH 520 0
DWIDTH 20 0
BBX 20 20 0 -3
BITMAP
000000
000000
000000
000000
002000
007000
007000
002000
000000
000000
002000
007000
007000
002000
000000
000000
000000
000000
000000
000000
ENDCHAR
STARTCHAR 65110
ENCODING 65110
SWIDTH 520 0
DWIDTH 20 0
BBX 20 20 0 -3
BITMAP
000000
000000
00F800
010400
020200
020200
020200
000200
000400
000800
001000
002000
002000
002000
000000
000000
002000
002000
000000
000000
ENDCHAR
STARTCHAR 65111
ENCODING 65111
SWIDTH 520 0
DWIDTH 20 0
BBX 20 20 0 -3
BITMAP
000000
000000
002000
002000
002000
002000
002000
002000
002000
002000
002000
002000
002000
002000
000000
000000
002000
002000
000000
000000
ENDCHAR
STARTCHAR 65113
ENCODING 65113
SWIDTH 520 0
DWIDTH 20 0
BBX 20 20 0 -3
BITMAP
000000
000000
000100
000200
000400
000400
000400
000800
000800
000800
000800
000800
000800
000400
000400
000400
000200
000100
000000
000000
ENDCHAR
STARTCHAR 65114
ENCODING 65114
SWIDTH 520 0
DWIDTH 20 0
BBX 20 20 0 -3
BITMAP
000000
000000
080000
040000
020000
020000
020000
010000
010000
010000
010000
010000
010000
020000
020000
020000
040000
080000
000000
000000
ENDCHAR
STARTCHAR 65124
ENCODING 65124
SWIDTH 520 0
DWIDTH 20 0
BBX 20 20 0 -3
BITMAP
000000
000000
000000
000000
000000
000000
060000
018000
006000
001800
006000
018000
060000
000000
000000
000000
000000
000000
000000
000000
ENDCHAR
STARTCHAR 65281
ENCODING 65281
SWIDTH 520 0
DWIDTH 20 0
BBX 20 20 0 -3
BITMAP
000000
002000
007000
007000
007000
007000
007000
007000
007000
007000
007000
002000
002000
002000
002000
000000
002000
007000
002000
000000
ENDCHAR
STARTCHAR 65282
ENCODING 65282
SWIDTH 520 0
DWIDTH 20 0
BBX 20 20 0 -3
BITMAP
000000
000000
005000
005000
005000
000000
000000
000000
000000
000000
000000
000000
000000
000000
000000
000000
000000
000000
000000
000000
ENDCHAR
STARTCHAR 65283
ENCODING 65283
SWIDTH 520 0
DWIDTH 20 0
BBX 20 20 0 -3
BITMAP
000000
000000
008800
008800
008800
008800
0FFF00
011000
011000
011000
011000
1FFE00
022000
022000
022000
022000
000000
000000
000000
000000
ENDCHAR
STARTCHAR 65284
ENCODING 65284
SWIDTH 520 0
DWIDTH 20 0
BBX 20 20 0 -3
BITMAP
000000
002000
002000
00FA00
012600
022200
022200
022000
012000
00E000
003800
002400
002200
022200
022200
032400
02F800
002000
002000
000000
ENDCHAR
STARTCHAR 65285
ENCODING 65285
SWIDTH 520 0
DWIDTH 20 0
BBX 20 20 0 -3
BITMAP
000000
000000
060040
090080
108100
108200
108400
090800
061000
002000
004000
008600
010900
021080
041080
081080
100900
000600
000000
000000
ENDCHAR
STARTCHAR 65286
ENCODING 65286
SWIDTH 520 0
DWIDTH 20 0
BBX 20 20 0 -3
BITMAP
000000
000000
01C000
022000
041000
041000
041000
022000
014000
018000
018F80
024200
042200
081200
081C00
080880
041480
03E300
000000
000000
ENDCHAR
STARTCHAR 65287
ENCODING 65287
SWIDTH 520 0
DWIDTH 20 0
BBX 20 20 0 -3
BITMAP
000000
000000
060000
060000
0C0000
080000
100000
000000
000000
000000
000000
000000
000000
000000
000000
000000
000000
000000
000000
000000
ENDCHAR
STARTCHAR 65288
ENCODING 65288
SWIDTH 520 0
DWIDTH 20 0
BBX 20 20 0 -3
BITMAP
000080
000100
000200
000200
000400
000400
000400
000800
000800
000800
000800
000800
000800
000400
000400
000400
000200
000200
000100
000080
ENDCHAR
STARTCHAR 65289
ENCODING 65289
SWIDTH 520 0
DWIDTH 20 0
BBX 20 20 0 -3
BITMAP
100000
080000
040000
040000
020000
020000
020000
010000
010000
010000
010000
010000
010000
020000
020000
020000
040000
040000
080000
100000
ENDCHAR
STARTCHAR 65290
ENCODING 65290
SWIDTH 520 0
DWIDTH 20 0
BBX 20 20 0 -3
BITMAP
000000
000000
002000
007000
007000
047100
0E7380
072700
03AE00
00F800
007000
00F800
018C00
038E00
070700
020200
000000
000000
000000
000000
ENDCHAR
STARTCHAR 65291
ENCODING 65291
SWIDTH 520 0
DWIDTH 20 0
BBX 20 20 0 -3
BITMAP
000000
000000
000000
002000
002000
002000
002000
002000
002000
1FFF80
002000
002000
002000
002000
002000
002000
002000
000000
000000
000000
ENDCHAR
STARTCHAR 65292
ENCODING 65292
SWIDTH 520 0
DWIDTH 20 0
BBX 20 20 0 -3
BITMAP
000000
000000
000000
000000
000000
000000
000000
000000
000000
000000
000000
000000
080000
1C0000
1C0000
0C0000
080000
100000
000000
000000
ENDCHAR
STARTCHAR 65293
ENCODING 65293
SWIDTH 520 0
DWIDTH 20 0
BBX 20 20 0 -3
BITMAP
000000
000000
000000
000000
000000
000000
000000
000000
000000
1FFF80
000000
000000
000000
000000
000000
000000
000000
000000
000000
000000
ENDCHAR
STARTCHAR 65294
ENCODING 65294
SWIDTH 520 0
DWIDTH 20 0
BBX 20 20 0 -3
BITMAP
000000
000000
000000
000000
000000
000000
000000
000000
000000
000000
000000
000000
080000
1C0000
1C0000
080000
000000
000000
000000
000000
ENDCHAR
STARTCHAR 65295
ENCODING 65295
SWIDTH 520 0
DWIDTH 20 0
BBX 20 20 0 -3
BITMAP
000000
000000
000040
000080
000100
000200
000400
000800
001000
002000
004000
008000
010000
020000
040000
080000
100000
000000
000000
000000
ENDCHAR
STARTCHAR 65296
ENCODING 65296
SWIDTH 520 0
DWIDTH 20 0
BBX 20 20 0 -3
BITMAP
000000
000000
00F000
010800
020400
020400
020400
020400
020400
020400
020400
020400
020400
020400
020400
010800
00F000
000000
000000
000000
ENDCHAR
STARTCHAR 65297
ENCODING 65297
SWIDTH 520 0
DWIDTH 20 0
BBX 20 20 0 -3
BITMAP
000000
000000
002000
00E000
002000
002000
002000
002000
002000
002000
002000
002000
002000
002000
002000
002000
00F800
000000
000000
000000
ENDCHAR
STARTCHAR 65298
ENCODING 65298
SWIDTH 520 0
DWIDTH 20 0
BBX 20 20 0 -3
BITMAP
000000
000000
00F000
010800
020400
020400
020400
000400
000400
000800
001000
002000
004000
008000
010000
020000
03FC00
000000
000000
000000
ENDCHAR
STARTCHAR 65299
ENCODING 65299
SWIDTH 520 0
DWIDTH 20 0
BBX 20 20 0 -3
BITMAP
000000
000000
00F000
010800
020400
000400
000400
000400
000800
00F000
000800
000400
000400
000400
020400
010800
00F000
000000
000000
000000
ENDCHAR
STARTCHAR 65300
ENCODING 65300
SWIDTH 520 0
DWIDTH 20 0
BBX 20 20 0 -3
BITMAP
000000
000000
003000
005000
005000
009000
009000
011000
011000
021000
021000
041000
07FC00
001000
001000
001000
007C00
000000
000000
000000
ENDCHAR
STARTCHAR 65301
ENCODING 65301
SWIDTH 520 0
DWIDTH 20 0
BBX 20 20 0 -3
BITMAP
000000
000000
03FC00
020000
020000
020000
020000
020000
02F000
030800
020400
000400
000400
000400
020400
010800
00F000
000000
000000
000000
ENDCHAR
STARTCHAR 65302
ENCODING 65302
SWIDTH 520 0
DWIDTH 20 0
BBX 20 20 0 -3
BITMAP
000000
000000
00F000
010800
020400
020000
020000
020000
02F000
030800
020400
020400
020400
020400
020400
010800
00F000
000000
000000
000000
ENDCHAR
STARTCHAR 65303
ENCODING 65303
SWIDTH 520 0
DWIDTH 20 0
BBX 20 20 0 -3
BITMAP
000000
000000
03FC00
020400
020400
000800
000800
001000
001000
001000
002000
002000
002000
002000
002000
002000
002000
000000
000000
000000
ENDCHAR
STARTCHAR 65304
ENCODING 65304
SWIDTH 520 0
DWIDTH 20 0
BBX 20 20 0 -3
BITMAP
000000
000000
00F000
010800
020400
020400
020400
020400
010800
00F000
010800
020400
020400
020400
020400
010800
00F000
000000
000000
000000
ENDCHAR
STARTCHAR 65305
ENCODING 65305
SWIDTH 520 0
DWIDTH 20 0
BBX 20 20 0 -3
BITMAP
000000
000000
00F000
010800
020400
020400
020400
020400
020400
010C00
00F400
000400
000400
000400
020400
010800
00F000
000000
000000
000000
ENDCHAR
STARTCHAR 65306
ENCODING 65306
SWIDTH 520 0
DWIDTH 20 0
BBX 20 20 0 -3
BITMAP
000000
000000
000000
000000
010000
038000
038000
010000
000000
000000
010000
038000
038000
010000
000000
000000
000000
000000
000000
000000
ENDCHAR
STARTCHAR 65307
ENCODING 65307
SWIDTH 520 0
DWIDTH 20 0
BBX 20 20 0 -3
BITMAP
000000
000000
000000
000000
010000
038000
038000
010000
000000
000000
010000
038000
038000
018000
010000
020000
000000
000000
000000
000000
ENDCHAR
STARTCHAR 65308
ENCODING 65308
SWIDTH 520 0
DWIDTH 20 0
BBX 20 20 0 -3
BITMAP
000000
000000
000000
000000
000300
000C00
003000
00C000
030000
040000
030000
00C000
003000
000C00
000300
000000
000000
000000
000000
000000
ENDCHAR
STARTCHAR 65309
ENCODING 65309
SWIDTH 520 0
DWIDTH 20 0
BBX 20 20 0 -3
BITMAP
000000
000000
000000
000000
000000
000000
000000
07FE00
000000
000000
000000
07FE00
000000
000000
000000
000000
000000
000000
000000
000000
ENDCHAR
STARTCHAR 65310
ENCODING 65310
SWIDTH 520 0
DWIDTH 20 0
BBX 20 20 0 -3
BITMAP
000000
000000
000000
000000
0C0000
030000
00C000
003000
000C00
000200
000C00
003000
00C000
030000
0C0000
000000
000000
000000
000000
000000
ENDCHAR
STARTCHAR 65311
ENCODING 65311
SWIDTH 520 0
DWIDTH 20 0
BBX 20 20 0 -3
BITMAP
000000
000000
00F800
010400
020200
020200
000200
000200
000400
000800
001000
002000
002000
000000
002000
007000
002000
000000
000000
000000
ENDCHAR
STARTCHAR 65312
ENCODING 65312
SWIDTH 520 0
DWIDTH 20 0
BBX 20 20 0 -3
BITMAP
000000
000000
00FC00
010200
020100
043880
084480
088480
110480
110880
121080
121100
093200
08CC00
040100
030200
00FC00
000000
000000
000000
ENDCHAR
STARTCHAR 65313
ENCODING 65313
SWIDTH 520 0
DWIDTH 20 0
BBX 20 20 0 -3
BITMAP
000000
000000
002000
005000
005000
005000
008800
008800
008800
010400
010400
01FC00
020200
020200
020200
040100
0E0380
000000
000000
000000
ENDCHAR
STARTCHAR 65314
ENCODING 65314
SWIDTH 520 0
DWIDTH 20 0
BBX 20 20 0 -3
BITMAP
000000
000000
0FF800
040400
040200
040200
040200
040200
040400
07F800
040400
040200
040200
040200
040200
040400
0FF800
000000
000000
000000
ENDCHAR
STARTCHAR 65315
ENCODING 65315
SWIDTH 520 0
DWIDTH 20 0
BBX 20 20 0 -3
BITMAP
000000
000000
01F800
020400
040200
040000
040000
040000
040000
040000
040000
040000
040000
040000
040200
020400
01F800
000000
000000
000000
ENDCHAR
STARTCHAR 65316
ENCODING 65316
SWIDTH 520 0
DWIDTH 20 0
BBX 20 20 0 -3
BITMAP
000000
000000
07F800
020400
020200
020200
020200
020200
020200
020200
020200
020200
020200
020200
020200
020400
07F800
000000
000000
000000
ENDCHAR
STARTCHAR 65317
ENCODING 65317
SWIDTH 520 0
DWIDTH 20 0
BBX 20 20 0 -3
BITMAP
000000
000000
07FC00
020400
020200
020000
020000
020800
03F800
020800
020000
020000
020000
020000
020200
020400
07FC00
000000
000000
000000
ENDCHAR
STARTCHAR 65318
ENCODING 65318
SWIDTH 520 0
DWIDTH 20 0
BBX 20 20 0 -3
BITMAP
000000
000000
07FC00
020400
020200
020000
020000
020800
03F800
020800
020000
020000
020000
020000
020000
020000
070000
000000
000000
000000
ENDCHAR
STARTCHAR 65319
ENCODING 65319
SWIDTH 520 0
DWIDTH 20 0
BBX 20 20 0 -3
BITMAP
000000
000000
01FA00
020600
040200
040000
040000
040000
040000
040000
040F00
040200
040200
040200
040200
020600
01FA00
000000
000000
000000
ENDCHAR
STARTCHAR 65320
ENCODING 65320
SWIDTH 520 0
DWIDTH 20 0
BBX 20 20 0 -3
BITMAP
000000
000000
0E0700
040200
040200
040200
040200
040200
07FE00
040200
040200
040200
040200
040200
040200
040200
0E0700
000000
000000
000000
ENDCHAR
STARTCHAR 65321
ENCODING 65321
SWIDTH 520 0
DWIDTH 20 0
BBX 20 20 0 -3
BITMAP
000000
000000
00E000
004000
004000
004000
004000
004000
004000
004000
004000
004000
004000
004000
004000
004000
00E000
000000
000000
000000
ENDCHAR
STARTCHAR 65322
ENCODING 65322
SWIDTH 520 0
DWIDTH 20 0
BBX 20 20 0 -3
BITMAP
000000
000000
001E00
000400
000400
000400
000400
000400
000400
000400
000400
000400
000400
000400
020400
010800
00F000
000000
000000
000000
ENDCHAR
STARTCHAR 65323
ENCODING 65323
SWIDTH 520 0
DWIDTH 20 0
BBX 20 20 0 -3
BITMAP
000000
000000
0E0700
040200
040400
040800
041000
042000
044000
048000
054000
062000
041000
040800
040400
040200
0E0700
000000
000000
000000
ENDCHAR
STARTCHAR 65324
ENCODING 65324
SWIDTH 520 0
DWIDTH 20 0
BBX 20 20 0 -3
BITMAP
000000
000000
0E0000
040000
040000
040000
040000
040000
040000
040000
040000
040000
040000
040000
040100
040200
0FFE00
000000
000000
000000
ENDCHAR
STARTCHAR 65325
ENCODING 65325
SWIDTH 520 0
DWIDTH 20 0
BBX 20 20 0 -3
BITMAP
000000
000000
1C0380
0C0300
0A0500
0A0500
0A0500
090900
090900
090900
089100
089100
089100
086100
086100
080100
1C0380
000000
000000
000000
ENDCHAR
STARTCHAR 65326
ENCODING 65326
SWIDTH 520 0
DWIDTH 20 0
BBX 20 20 0 -3
BITMAP
000000
000000
0E0E00
060400
050400
050400
048400
048400
044400
044400
042400
042400
041400
041400
040C00
040C00
0E0E00
000000
000000
000000
ENDCHAR
STARTCHAR 65327
ENCODING 65327
SWIDTH 520 0
DWIDTH 20 0
BBX 20 20 0 -3
BITMAP
000000
000000
01F800
020400
040200
040200
040200
040200
040200
040200
040200
040200
040200
040200
040200
020400
01F800
000000
000000
000000
ENDCHAR
STARTCHAR 65328
ENCODING 65328
SWIDTH 520 0
DWIDTH 20 0
BBX 20 20 0 -3
BITMAP
000000
000000
0FFC00
040200
040100
040100
040100
040100
040100
040200
07FC00
040000
040000
040000
040000
040000
0E0000
000000
000000
000000
ENDCHAR
STARTCHAR 65329
ENCODING 65329
SWIDTH 520 0
DWIDTH 20 0
BBX 20 20 0 -3
BITMAP
000000
000000
01F800
020400
040200
040200
040200
040200
040200
040200
040200
040200
040200
04C200
052200
021480
01F900
000600
000000
000000
ENDCHAR
STARTCHAR 65330
ENCODING 65330
SWIDTH 520 0
DWIDTH 20 0
BBX 20 20 0 -3
BITMAP
000000
000000
0FFC00
040200
040100
040100
040100
040100
040100
040200
07FC00
040800
040400
040400
040400
040480
0E0300
000000
000000
000000
ENDCHAR
STARTCHAR 65331
ENCODING 65331
SWIDTH 520 0
DWIDTH 20 0
BBX 20 20 0 -3
BITMAP
000000
000000
01F800
020400
040200
040200
040000
020000
018000
006000
001800
000400
040200
040200
040200
020400
01F800
000000
000000
000000
ENDCHAR
STARTCHAR 65332
ENCODING 65332
SWIDTH 520 0
DWIDTH 20 0
BBX 20 20 0 -3
BITMAP
000000
000000
0FFE00
084200
104100
004000
004000
004000
004000
004000
004000
004000
004000
004000
004000
004000
00E000
000000
000000
000000
ENDCHAR
STARTCHAR 65333
ENCODING 65333
SWIDTH 520 0
DWIDTH 20 0
BBX 20 20 0 -3
BITMAP
000000
000000
0E0700
040200
040200
040200
040200
040200
040200
040200
040200
040200
040200
040200
040200
020400
01F800
000000
000000
000000
ENDCHAR
STARTCHAR 65334
ENCODING 65334
SWIDTH 520 0
DWIDTH 20 0
BBX 20 20 0 -3
BITMAP
000000
000000
0E0700
040200
040200
040200
020400
020400
020400
010800
010800
010800
009000
009000
009000
006000
006000
000000
000000
000000
ENDCHAR
STARTCHAR 65335
ENCODING 65335
SWIDTH 520 0
DWIDTH 20 0
BBX 20 20 0 -3
BITMAP
000000
000000
38E380
104100
104100
104100
104100
08A200
08A200
08A200
08A200
051400
051400
051400
051400
020800
020800
000000
000000
000000
ENDCHAR
STARTCHAR 65336
ENCODING 65336
SWIDTH 520 0
DWIDTH 20 0
BBX 20 20 0 -3
BITMAP
000000
000000
0E0E00
040400
020800
020800
011000
00A000
00A000
004000
00A000
00A000
011000
020800
020800
040400
0E0E00
000000
000000
000000
ENDCHAR
STARTCHAR 65337
ENCODING 65337
SWIDTH 520 0
DWIDTH 20 0
BBX 20 20 0 -3
BITMAP
000000
000000
0E0E00
040400
040400
020800
020800
011000
011000
00A000
00A000
004000
004000
004000
004000
004000
00E000
000000
000000
000000
ENDCHAR
STARTCHAR 65338
ENCODING 65338
SWIDTH 520 0
DWIDTH 20 0
BBX 20 20 0 -3
BITMAP
000000
000000
0FFF00
080100
100200
000400
000800
001000
002000
004000
008000
010000
020000
040000
080080
080100
0FFF00
000000
000000
000000
ENDCHAR
STARTCHAR 65339
ENCODING 65339
SWIDTH 520 0
DWIDTH 20 0
BBX 20 20 0 -3
BITMAP
0007C0
000400
000400
000400
000400
000400
000400
000400
000400
000400
000400
000400
000400
000400
000400
000400
000400
000400
000400
0007C0
ENDCHAR
STARTCHAR 65340
ENCODING 65340
SWIDTH 520 0
DWIDTH 20 0
BBX 20 20 0 -3
BITMAP
000000
000000
100000
080000
040000
020000
010000
008000
004000
002000
001000
000800
000400
000200
000100
000080
000040
000000
000000
000000
ENDCHAR
STARTCHAR 65341
ENCODING 65341
SWIDTH 520 0
DWIDTH 20 0
BBX 20 20 0 -3
BITMAP
3E0000
020000
020000
020000
020000
020000
020000
020000
020000
020000
020000
020000
020000
020000
020000
020000
020000
020000
020000
3E0000
ENDCHAR
STARTCHAR 65342
ENCODING 65342
SWIDTH 520 0
DWIDTH 20 0
BBX 20 20 0 -3
BITMAP
002000
005000
008800
010400
000000
000000
000000
000000
000000
000000
000000
000000
000000
000000
000000
000000
000000
000000
000000
000000
ENDCHAR
STARTCHAR 65343
ENCODING 65343
SWIDTH 520 0
DWIDTH 20 0
BBX 20 20 0 -3
BITMAP
000000
000000
000000
000000
000000
000000
000000
000000
000000
000000
000000
000000
000000
000000
000000
000000
000000
000000
000000
FFFFE0
ENDCHAR
STARTCHAR 65344
ENCODING 65344
SWIDTH 520 0
DWIDTH 20 0
BBX 20 20 0 -3
BITMAP
000000
000000
000600
000600
000300
000100
000080
000000
000000
000000
000000
000000
000000
000000
000000
000000
000000
000000
000000
000000
ENDCHAR
STARTCHAR 65345
ENCODING 65345
SWIDTH 520 0
DWIDTH 20 0
BBX 20 20 0 -3
BITMAP
000000
000000
000000
000000
000000
000000
000000
01F000
020800
000800
007800
018800
020800
020800
023800
01CC00
000000
000000
000000
000000
ENDCHAR
STARTCHAR 65346
ENCODING 65346
SWIDTH 520 0
DWIDTH 20 0
BBX 20 20 0 -3
BITMAP
000000
000000
000000
060000
020000
020000
020000
020000
02F000
030800
020400
020400
020400
020400
030800
02F000
000000
000000
000000
000000
ENDCHAR
STARTCHAR 65347
ENCODING 65347
SWIDTH 520 0
DWIDTH 20 0
BBX 20 20 0 -3
BITMAP
000000
000000
000000
000000
000000
000000
000000
000000
00F000
010800
020000
020000
020000
020000
010800
00F000
000000
000000
000000
000000
ENDCHAR
STARTCHAR 65348
ENCODING 65348
SWIDTH 520 0
DWIDTH 20 0
BBX 20 20 0 -3
BITMAP
000000
000000
000000
000600
000400
000400
000400
000400
00F400
010C00
020400
020400
020400
020400
010C00
00F400
000000
000000
000000
000000
ENDCHAR
STARTCHAR 65349
ENCODING 65349
SWIDTH 520 0
DWIDTH 20 0
BBX 20 20 0 -3
BITMAP
000000
000000
000000
000000
000000
000000
000000
000000
00F000
010800
020400
03FC00
020000
020000
010400
00F800
000000
000000
000000
000000
ENDCHAR
STARTCHAR 65350
ENCODING 65350
SWIDTH 520 0
DWIDTH 20 0
BBX 20 20 0 -3
BITMAP
000000
000000
000000
003000
004800
004000
004000
004000
01F000
004000
004000
004000
004000
004000
004000
00E000
000000
000000
000000
000000
ENDCHAR
STARTCHAR 65351
ENCODING 65351
SWIDTH 520 0
DWIDTH 20 0
BBX 20 20 0 -3
BITMAP
000000
000000
000000
000000
000000
000000
000000
000000
00F400
010C00
020400
020400
020400
020400
010C00
00F400
000400
020400
010800
00F000
ENDCHAR
STARTCHAR 65352
ENCODING 65352
SWIDTH 520 0
DWIDTH 20 0
BBX 20 20 0 -3
BITMAP
000000
000000
000000
060000
020000
020000
020000
020000
02F000
030800
020800
020800
020800
020800
020800
071C00
000000
000000
000000
000000
ENDCHAR
STARTCHAR 65353
ENCODING 65353
SWIDTH 520 0
DWIDTH 20 0
BBX 20 20 0 -3
BITMAP
000000
000000
000000
000000
004000
004000
000000
000000
00C000
004000
004000
004000
004000
004000
004000
00E000
000000
000000
000000
000000
ENDCHAR
STARTCHAR 65354
ENCODING 65354
SWIDTH 520 0
DWIDTH 20 0
BBX 20 20 0 -3
BITMAP
000000
000000
000000
000000
002000
002000
000000
000000
006000
002000
002000
002000
002000
002000
002000
002000
002000
002000
022000
01C000
ENDCHAR
STARTCHAR 65355
ENCODING 65355
SWIDTH 520 0
DWIDTH 20 0
BBX 20 20 0 -3
BITMAP
000000
000000
000000
070000
020000
020000
020000
023800
021000
022000
024000
028000
034000
022000
021000
073800
000000
000000
000000
000000
ENDCHAR
STARTCHAR 65356
ENCODING 65356
SWIDTH 520 0
DWIDTH 20 0
BBX 20 20 0 -3
BITMAP
000000
000000
000000
006000
002000
002000
002000
002000
002000
002000
002000
002000
002000
002000
002000
007000
000000
000000
000000
000000
ENDCHAR
STARTCHAR 65357
ENCODING 65357
SWIDTH 520 0
DWIDTH 20 0
BBX 20 20 0 -3
BITMAP
000000
000000
000000
000000
000000
000000
000000
000000
06DC00
032200
022200
022200
022200
022200
022200
077700
000000
000000
000000
000000
ENDCHAR
STARTCHAR 65358
ENCODING 65358
SWIDTH 520 0
DWIDTH 20 0
BBX 20 20 0 -3
BITMAP
000000
000000
000000
000000
000000
000000
000000
000000
037000
018800
010800
010800
010800
010800
010800
039C00
000000
000000
000000
000000
ENDCHAR
STARTCHAR 65359
ENCODING 65359
SWIDTH 520 0
DWIDTH 20 0
BBX 20 20 0 -3
BITMAP
000000
000000
000000
000000
000000
000000
000000
000000
00F000
010800
010800
010800
010800
010800
010800
00F000
000000
000000
000000
000000
ENDCHAR
STARTCHAR 65360
ENCODING 65360
SWIDTH 520 0
DWIDTH 20 0
BBX 20 20 0 -3
BITMAP
000000
000000
000000
000000
000000
000000
000000
000000
037800
018400
010400
010400
010400
010400
018400
017800
010000
010000
010000
038000
ENDCHAR
STARTCHAR 65361
ENCODING 65361
SWIDTH 520 0
DWIDTH 20 0
BBX 20 20 0 -3
BITMAP
000000
000000
000000
000000
000000
000000
000000
000000
01EC00
021800
020800
020800
020800
020800
021800
01E800
000800
000800
000800
001C00
ENDCHAR
STARTCHAR 65362
ENCODING 65362
SWIDTH 520 0
DWIDTH 20 0
BBX 20 20 0 -3
BITMAP
000000
000000
000000
000000
000000
000000
000000
000000
037000
018800
010000
010000
010000
010000
010000
038000
000000
000000
000000
000000
ENDCHAR
STARTCHAR 65363
ENCODING 65363
SWIDTH 520 0
DWIDTH 20 0
BBX 20 20 0 -3
BITMAP
000000
000000
000000
000000
000000
000000
000000
000000
01F800
020400
020000
01C000
003800
000400
020400
01F800
000000
000000
000000
000000
ENDCHAR
STARTCHAR 65364
ENCODING 65364
SWIDTH 520 0
DWIDTH 20 0
BBX 20 20 0 -3
BITMAP
000000
000000
000000
000000
004000
004000
004000
004000
01F000
004000
004000
004000
004000
004000
004800
003000
000000
000000
000000
000000
ENDCHAR
STARTCHAR 65365
ENCODING 65365
SWIDTH 520 0
DWIDTH 20 0
BBX 20 20 0 -3
BITMAP
000000
000000
000000
000000
000000
000000
000000
000000
061800
020800
020800
020800
020800
020800
020800
01F600
000000
000000
000000
000000
ENDCHAR
STARTCHAR 65366
ENCODING 65366
SWIDTH 520 0
DWIDTH 20 0
BBX 20 20 0 -3
BITMAP
000000
000000
000000
000000
000000
000000
000000
000000
071C00
020800
020800
011000
011000
00A000
00A000
004000
000000
000000
000000
000000
ENDCHAR
STARTCHAR 65367
ENCODING 65367
SWIDTH 520 0
DWIDTH 20 0
BBX 20 20 0 -3
BITMAP
000000
000000
000000
000000
000000
000000
000000
000000
0EEE00
044400
044400
02A800
02A800
02A800
011000
011000
000000
000000
000000
000000
ENDCHAR
STARTCHAR 65368
ENCODING 65368
SWIDTH 520 0
DWIDTH 20 0
BBX 20 20 0 -3
BITMAP
000000
000000
000000
000000
000000
000000
000000
000000
039C00
010800
009000
006000
006000
009000
010800
039C00
000000
000000
000000
000000
ENDCHAR
STARTCHAR 65369
ENCODING 65369
SWIDTH 520 0
DWIDTH 20 0
BBX 20 20 0 -3
BITMAP
000000
000000
000000
000000
000000
000000
000000
000000
071C00
020800
020800
011000
011000
00A000
00A000
004000
004000
008000
008000
070000
ENDCHAR
STARTCHAR 65370
ENCODING 65370
SWIDTH 520 0
DWIDTH 20 0
BBX 20 20 0 -3
BITMAP
000000
000000
000000
000000
000000
000000
000000
000000
01FC00
020800
001000
002000
004000
008000
010400
03FC00
000000
000000
000000
000000
ENDCHAR
STARTCHAR 65371
ENCODING 65371
SWIDTH 520 0
DWIDTH 20 0
BBX 20 20 0 -3
BITMAP
000800
001000
002000
002000
002000
002000
002000
002000
004000
008000
004000
002000
002000
002000
002000
002000
002000
002000
001000
000800
ENDCHAR
STARTCHAR 65372
ENCODING 65372
SWIDTH 520 0
DWIDTH 20 0
BBX 20 20 0 -3
BITMAP
004000
004000
004000
004000
004000
004000
004000
004000
004000
004000
004000
004000
004000
004000
004000
004000
004000
004000
004000
004000
ENDCHAR
STARTCHAR 65373
ENCODING 65373
SWIDTH 520 0
DWIDTH 20 0
BBX 20 20 0 -3
BITMAP
010000
008000
004000
004000
004000
004000
004000
004000
002000
001000
002000
004000
004000
004000
004000
004000
004000
004000
008000
010000
ENDCHAR
STARTCHAR 65374
ENCODING 65374
SWIDTH 520 0
DWIDTH 20 0
BBX 20 20 0 -3
BITMAP
000000
000000
000000
000000
000000
000000
000000
000000
038000
044100
082200
001C00
000000
000000
000000
000000
000000
000000
000000
000000
ENDCHAR
STARTCHAR 65377
ENCODING 65377
SWIDTH 520 0
DWIDTH 20 0
BBX 20 20 0 -3
BITMAP
000000
000000
000000
000000
000000
000000
000000
000000
000000
000000
000000
000000
000000
180000
140000
140000
140000
080000
000000
000000
ENDCHAR
STARTCHAR 65378
ENCODING 65378
SWIDTH 520 0
DWIDTH 20 0
BBX 20 20 0 -3
BITMAP
000000
000000
001F00
001000
001000
001000
001000
001000
001000
001000
001000
001000
000000
000000
000000
000000
000000
000000
000000
000000
ENDCHAR
STARTCHAR 65379
ENCODING 65379
SWIDTH 520 0
DWIDTH 20 0
BBX 20 20 0 -3
BITMAP
000000
000000
000000
000000
000000
000000
000000
000000
000000
008000
008000
008000
008000
008000
008000
008000
008000
008000
0F8000
000000
ENDCHAR
STARTCHAR 65380
ENCODING 65380
SWIDTH 520 0
DWIDTH 20 0
BBX 20 20 0 -3
BITMAP
000000
000000
000000
000000
000000
000000
000000
000000
000000
000000
000000
000000
000000
000000
000000
0C0000
060000
030000
010000
000000
ENDCHAR
STARTCHAR 65504
ENCODING 65504
SWIDTH 520 0 
DWIDTH 19 0
BBX 19 20 0 -3
BITMAP
000400
000400
000800
00F900
030D00
061300
0C1100
0C1100
182000
182000
182000
184000
0C4000
0C4000
068100
038600
00F800
010000
010000
020000
ENDCHAR
STARTCHAR 65505
ENCODING 65505
SWIDTH 520 0 
DWIDTH 19 0
BBX 19 20 0 -3
BITMAP
000000
001800
002400
004600
004000
004000
008000
008000
008000
0FF800
010000
010000
010000
010000
020000
020000
020000
0FFE00
000000
000000
ENDCHAR
STARTCHAR 65509
ENCODING 65509
SWIDTH 520 0
DWIDTH 20 0
BBX 20 20 0 -3
BITMAP
000000
000000
000000
781E00
100800
081000
042000
3FFC00
024000
018000
3FFC00
018000
018000
018000
018000
018000
07E000
000000
000000
000000
ENDCHAR
STARTCHAR 65515
ENCODING 65515
SWIDTH 520 0
DWIDTH 20 0
BBX 20 20 0 -3
BITMAP
000000
000000
000000
1FFF80
100080
100080
100080
100080
100080
100080
100080
100080
100080
100080
100080
100080
1FFF80
000000
000000
000000
ENDCHAR
STARTCHAR 65533
ENCODING 65533
SWIDTH 520 0
DWIDTH 20 0
BBX 20 20 0 -3
BITMAP
006000
00F000
01F800
03FC00
070E00
0E0300
1C6380
3CF1C0
7CF1E0
FFF3F0
FFE3F0
7FC7E0
3F8FC0
1F8F80
0F8F00
07FE00
038C00
018800
00F000
006000
ENDCHAR
ENDFONT
